<?xml version="1.0" encoding="UTF-8"?>
<svg version="1.1" xmlns="http://www.w3.org/2000/svg" width="1000" height="1000">
<path d="M0 0 C4.55267443 1.04659182 9.07473917 2.01004872 13.6875 2.75 C25.03827406 4.58221156 36.22293497 7.17094183 47.4375 9.6875 C47.4375 10.3475 47.4375 11.0075 47.4375 11.6875 C48.118125 11.48125 48.79875 11.275 49.5 11.0625 C53.33735641 10.57262471 55.83705045 11.3127829 59.4375 12.6875 C61.875 14.6875 61.875 14.6875 63.4375 16.6875 C63.4375 17.3475 63.4375 18.0075 63.4375 18.6875 C63.994375 18.89375 64.55125 19.1 65.125 19.3125 C67.66562201 20.82314012 69.20257497 22.62608175 70.99609375 24.95703125 C73.47379204 27.93161213 76.29426418 30.56870922 79.05883789 33.27416992 C80.79221423 34.9714291 82.52114928 36.67313245 84.25 38.375 C85.1462207 39.24608398 85.1462207 39.24608398 86.06054688 40.13476562 C87.55764673 41.61475576 89.00238731 43.14732782 90.4375 44.6875 C90.4375 45.3475 90.4375 46.0075 90.4375 46.6875 C91.88754243 48.15391754 91.88754243 48.15391754 93.8125 49.6875 C97.31756203 52.67119976 100.65662967 55.77053932 103.9375 59 C104.7934375 59.84175781 105.649375 60.68351562 106.53125 61.55078125 C108.4375 63.6875 108.4375 63.6875 108.4375 65.6875 C109.9882907 67.25614082 109.9882907 67.25614082 112 68.875 C112.72703125 69.50019531 113.4540625 70.12539063 114.203125 70.76953125 C115.6086912 71.97605748 117.0148548 73.18188846 118.421875 74.38671875 C122.38773895 78.02209404 124.209787 80.95221981 125.63671875 86.1171875 C126.59996033 89.20895804 127.92107911 92.01375483 129.3125 94.9375 C132.3600077 101.40875093 134.93243944 107.99143335 137.4375 114.6875 C138.35223848 117.06324331 139.26886426 119.43826093 140.1875 121.8125 C141.32628137 124.7603581 142.43815222 127.68945667 143.4375 130.6875 C142.7775 130.6875 142.1175 130.6875 141.4375 130.6875 C141.62570312 131.24179687 141.81390625 131.79609375 142.0078125 132.3671875 C142.53884347 135.23475476 142.05940727 136.98997675 141.3125 139.8125 C139.62350909 146.64558651 138.29772164 153.52012256 137 160.4375 C135.52870907 168.19294879 134.02808648 175.93330632 132.25 183.625 C132.0180896 184.65222168 132.0180896 184.65222168 131.78149414 185.70019531 C131.02631765 188.87513613 130.27554696 190.93042956 128.4375 193.6875 C127.4475 193.6875 126.4575 193.6875 125.4375 193.6875 C126.396423 197.37566539 127.32506047 200.46694553 129.0625 203.875 C130.4375 206.6875 130.4375 206.6875 130.4375 210.6875 C131.0975 210.6875 131.7575 210.6875 132.4375 210.6875 C133.83103502 216.17454414 134.4375 221.00616665 134.4375 226.6875 C135.09108081 228.69181449 135.75886945 230.6915278 136.4375 232.6875 C136.74597705 234.87641936 136.94971711 237.06524381 137.16015625 239.265625 C137.44746408 241.77451025 137.87907144 244.21170163 138.375 246.6875 C138.53871094 247.5228125 138.70242188 248.358125 138.87109375 249.21875 C139.39003242 251.6802473 139.39003242 251.6802473 140.22265625 253.96875 C141.42384992 257.6970451 141.85761377 259.71746987 140.26171875 263.40234375 C138.75033887 265.91650073 137.14521354 268.30391039 135.4375 270.6875 C135.1075 271.3475 134.7775 272.0075 134.4375 272.6875 C133.7775 272.6875 133.1175 272.6875 132.4375 272.6875 C132.33308594 273.23921875 132.22867187 273.7909375 132.12109375 274.359375 C131.29189616 277.18338509 130.0095035 279.41304916 128.5 281.9375 C127.97535156 282.82953125 127.45070313 283.7215625 126.91015625 284.640625 C126.18119141 285.65382813 126.18119141 285.65382813 125.4375 286.6875 C124.7775 286.6875 124.1175 286.6875 123.4375 286.6875 C123.39625 287.3475 123.355 288.0075 123.3125 288.6875 C121.53017681 294.79832237 118.57577351 298.40702226 113.078125 301.69921875 C109.65557227 303.47294093 106.1662197 305.09391544 102.65478516 306.68310547 C99.73949401 308.00368549 96.84768543 309.37193107 93.95410156 310.73925781 C92.52893727 311.41187297 91.10250444 312.08180697 89.67480469 312.74902344 C83.88674081 315.45474965 78.1596423 318.26366654 72.4765625 321.18359375 C69.4375 322.6875 69.4375 322.6875 66.8984375 323.66015625 C63.84876942 324.85229923 61.81546325 325.88042057 60.3984375 328.90625 C59.62948075 331.48497365 59.00901096 334.05854957 58.4375 336.6875 C56.27094516 343.95183094 51.35201273 348.21357184 45.4375 352.6875 C44.7775 352.6875 44.1175 352.6875 43.4375 352.6875 C43.4375 353.3475 43.4375 354.0075 43.4375 354.6875 C41.5390625 356.4140625 41.5390625 356.4140625 39.0625 358.3125 C37.84433594 359.25996094 37.84433594 359.25996094 36.6015625 360.2265625 C34.4375 361.6875 34.4375 361.6875 32.4375 361.6875 C32.1075 362.6775 31.7775 363.6675 31.4375 364.6875 C29.7875 364.3575 28.1375 364.0275 26.4375 363.6875 C26.4375 364.3475 26.4375 365.0075 26.4375 365.6875 C25.56351563 365.85185547 25.56351563 365.85185547 24.671875 366.01953125 C19.17742179 367.07065924 19.17742179 367.07065924 13.76953125 368.48828125 C-2.45473295 373.31665889 -18.23520655 370.61065255 -34.25732422 366.29736328 C-36.23733908 365.77352542 -38.23870857 365.33161708 -40.2421875 364.90625 C-44.66562553 363.28258804 -47.505542 360.72463878 -50.9375 357.5625 C-52.25234839 356.37471679 -53.56745175 355.18721579 -54.8828125 354 C-55.51219727 353.42636719 -56.14158203 352.85273437 -56.79003906 352.26171875 C-58.2885356 350.93082265 -59.8530113 349.67478269 -61.4296875 348.4375 C-66.71807442 344.27614636 -68.72984352 340.94206022 -70.02734375 334.30078125 C-70.61680505 331.42231692 -71.10636214 329.25666277 -72.5625 326.6875 C-74.85248291 325.22638805 -76.9231818 324.10949525 -79.375 323 C-80.07496094 322.66677734 -80.77492188 322.33355469 -81.49609375 321.99023438 C-83.02741646 321.26325626 -84.56227093 320.54368308 -86.10009766 319.83056641 C-88.65128761 318.6462841 -91.19177376 317.4412893 -93.73046875 316.23046875 C-94.60662842 315.81265137 -95.48278809 315.39483398 -96.38549805 314.96435547 C-97.26890869 314.54299316 -98.15231934 314.12163086 -99.0625 313.6875 C-100.84371317 312.83976637 -102.62496287 311.99210947 -104.40625 311.14453125 C-105.70175781 310.52698975 -105.70175781 310.52698975 -107.0234375 309.89697266 C-108.67359204 309.11092789 -110.32458902 308.32664838 -111.9765625 307.54443359 C-114.17721949 306.49865528 -116.37062527 305.43903684 -118.5625 304.375 C-119.20251953 304.07400391 -119.84253906 303.77300781 -120.50195312 303.46289062 C-126.65608595 300.44225369 -130.40195692 296.34009479 -133.9375 290.5625 C-134.53304688 289.60085938 -135.12859375 288.63921875 -135.7421875 287.6484375 C-136.64324219 286.18277344 -136.64324219 286.18277344 -137.5625 284.6875 C-138.72581923 282.85204077 -139.89244028 281.0186697 -141.0625 279.1875 C-141.63226563 278.2903125 -142.20203125 277.393125 -142.7890625 276.46875 C-144.02720469 274.52699397 -145.27258321 272.5898415 -146.5234375 270.65625 C-147.47089844 269.18671875 -147.47089844 269.18671875 -148.4375 267.6875 C-149.01242187 266.800625 -149.58734375 265.91375 -150.1796875 265 C-151.67609543 262.4975325 -152.74000701 260.69949398 -152.22265625 257.75 C-152.02542969 257.069375 -151.82820313 256.38875 -151.625 255.6875 C-150.89471342 253.13391514 -150.5625 251.39041635 -150.5625 248.6875 C-149.9025 248.6875 -149.2425 248.6875 -148.5625 248.6875 C-148.76875 248.006875 -148.975 247.32625 -149.1875 246.625 C-149.66799454 242.86112613 -148.6359716 240.32537597 -147.5625 236.6875 C-147.11178034 233.36412133 -146.85005486 230.0283647 -146.5625 226.6875 C-145.38737594 215.81293929 -141.8625864 206.1116096 -137.63208008 196.0925293 C-136.06773721 192.3002586 -135.07512114 188.75721174 -134.5625 184.6875 C-133.9025 184.6875 -133.2425 184.6875 -132.5625 184.6875 C-132.8925 183.6975 -133.2225 182.7075 -133.5625 181.6875 C-133.0153394 178.99489388 -132.40312602 176.39686841 -131.6875 173.75 C-131.50058594 173.03392578 -131.31367188 172.31785156 -131.12109375 171.58007812 C-130.60734831 169.61436417 -130.08524671 167.6508394 -129.5625 165.6875 C-129.22857926 164.35431366 -128.89519296 163.02099326 -128.5625 161.6875 C-127.84689858 159.02770438 -127.1172038 156.3723412 -126.37890625 153.71875 C-125.83143913 151.68604911 -125.31868368 149.64370255 -124.83984375 147.59375 C-124.60394531 146.6140625 -124.36804688 145.634375 -124.125 144.625 C-123.92003906 143.72652344 -123.71507812 142.82804688 -123.50390625 141.90234375 C-122.5625 139.6875 -122.5625 139.6875 -120.90625 138.26953125 C-117.40083522 137.39901991 -114.92111227 138.38706385 -111.5 139.4375 C-109.65728516 139.98664063 -109.65728516 139.98664063 -107.77734375 140.546875 C-103.72147398 141.98589562 -101.98830513 142.82706476 -100.0546875 146.734375 C-99.79486084 147.32951904 -99.53503418 147.92466309 -99.26733398 148.5378418 C-96.09880512 155.79124665 -92.79893254 160.19784979 -85.5625 163.6875 C-84.63050781 164.19925781 -83.69851563 164.71101562 -82.73828125 165.23828125 C-78.17350486 167.32134649 -73.52506076 167.97261581 -68.609375 168.84375 C-65.5625 169.6875 -65.5625 169.6875 -63.5625 172.6875 C-60.15358132 164.8670395 -62.41182638 157.65443899 -64.55078125 149.75390625 C-65.82305342 147.15532719 -66.9049632 146.70962954 -69.5625 145.6875 C-70.5525 145.23375 -71.5425 144.78 -72.5625 144.3125 C-76.84683251 142.4842719 -81.2725709 141.10303686 -85.703125 139.67578125 C-88.03017861 138.8714854 -90.12073279 137.9759106 -92.3125 136.875 C-96.92338241 135.1902545 -100.96861661 135.74950985 -105.49609375 137.38671875 C-108.94227361 138.58629444 -110.76594158 138.9750827 -114.2890625 137.703125 C-116.78054072 136.45387677 -119.18437147 135.13971783 -121.5625 133.6875 C-123.07025435 138.89923535 -124.49622892 144.12775035 -125.875 149.375 C-126.19440552 150.58893433 -126.19440552 150.58893433 -126.52026367 151.82739258 C-128.94728356 161.09411507 -131.25997091 170.38920169 -133.5625 179.6875 C-134.2225 179.6875 -134.8825 179.6875 -135.5625 179.6875 C-135.35625 180.22375 -135.15 180.76 -134.9375 181.3125 C-134.20220784 185.96935034 -136.81038745 190.43236951 -138.5625 194.6875 C-141.5625 192.6875 -141.5625 192.6875 -142.1875 190.2890625 C-142.31125 189.30679688 -142.435 188.32453125 -142.5625 187.3125 C-143.18796857 182.92896399 -143.99717485 178.7199665 -145.125 174.4375 C-146.32408998 169.83395858 -147.05629383 165.41209088 -147.5625 160.6875 C-147.76875 159.90375 -147.975 159.12 -148.1875 158.3125 C-148.5625 156.6875 -148.5625 156.6875 -147.5625 154.6875 C-148.2225 154.6875 -148.8825 154.6875 -149.5625 154.6875 C-149.2325 153.0375 -148.9025 151.3875 -148.5625 149.6875 C-149.2225 149.6875 -149.8825 149.6875 -150.5625 149.6875 C-150.2325 148.0375 -149.9025 146.3875 -149.5625 144.6875 C-150.2225 144.6875 -150.8825 144.6875 -151.5625 144.6875 C-152.12377531 142.31565918 -152.6616444 139.94221941 -153.1875 137.5625 C-153.34734375 136.89734375 -153.5071875 136.2321875 -153.671875 135.546875 C-154.85568954 130.05828032 -154.02327231 126.60904463 -151.5625 121.6875 C-150.9025 121.6875 -150.2425 121.6875 -149.5625 121.6875 C-149.8925 120.6975 -150.2225 119.7075 -150.5625 118.6875 C-149.90368937 117.00178136 -149.23059386 115.31961711 -148.47119141 113.67675781 C-147.54555812 111.65041175 -146.73754773 109.60677556 -145.94921875 107.5234375 C-136.00643784 81.40946892 -136.00643784 81.40946892 -132.5625 79.6875 C-131.8944031 78.35488274 -131.22797166 77.02143017 -130.5625 75.6875 C-128.20699497 72.80676124 -125.61809458 70.14117576 -123.0625 67.4375 C-122.37285156 66.69242187 -121.68320312 65.94734375 -120.97265625 65.1796875 C-120.31136719 64.47585938 -119.65007812 63.77203125 -118.96875 63.046875 C-118.36353516 62.40202148 -117.75832031 61.75716797 -117.13476562 61.09277344 C-115.5625 59.6875 -115.5625 59.6875 -113.5625 59.6875 C-113.29824219 59.10323242 -113.03398437 58.51896484 -112.76171875 57.91699219 C-110.68615837 54.05827529 -107.54933714 51.11026475 -104.5625 47.9375 C-103.92054688 47.24011719 -103.27859375 46.54273438 -102.6171875 45.82421875 C-102.00101562 45.16550781 -101.38484375 44.50679687 -100.75 43.828125 C-100.18667969 43.22516602 -99.62335938 42.62220703 -99.04296875 42.00097656 C-97.5625 40.6875 -97.5625 40.6875 -95.5625 40.6875 C-95.335625 40.15125 -95.10875 39.615 -94.875 39.0625 C-92.8679879 35.43076382 -90.33414705 31.57332352 -86.5625 29.6875 C-85.01544322 27.92928505 -83.56191803 26.10876854 -82.09765625 24.28125 C-80.5625 22.6875 -80.5625 22.6875 -77.5625 21.6875 C-76.87763275 20.36342331 -76.21379797 19.02840759 -75.5625 17.6875 C-73.5625 15.4375 -73.5625 15.4375 -71.5625 13.6875 C-70.9025 13.6875 -70.2425 13.6875 -69.5625 13.6875 C-69.5625 13.0275 -69.5625 12.3675 -69.5625 11.6875 C-68.69238281 11.61402344 -68.69238281 11.61402344 -67.8046875 11.5390625 C-63.09638934 11.0884333 -59.03178303 10.30404918 -54.5625 8.6875 C-48.21651873 6.94990989 -41.82473776 5.71697032 -35.33081055 4.68505859 C-28.14050019 3.53575372 -21.0836289 2.22563849 -14.04296875 0.3359375 C-13.22441406 0.12195313 -12.40585937 -0.09203125 -11.5625 -0.3125 C-10.76585937 -0.53292969 -9.96921875 -0.75335938 -9.1484375 -0.98046875 C-5.81822103 -1.40806452 -3.26054003 -0.78267798 0 0 Z M109.4375 132.6875 C109.4375 133.3475 109.4375 134.0075 109.4375 134.6875 C108.695 134.81125 107.9525 134.935 107.1875 135.0625 C104.48901943 135.53483408 104.48901943 135.53483408 102.53515625 136.77734375 C99.9372249 137.90456536 98.82298721 137.61778511 96.125 136.875 C88.56405678 134.85241375 83.79476887 134.37046907 76.6875 137.625 C69.74764412 140.6875 69.74764412 140.6875 66.4375 140.6875 C66.4375 141.3475 66.4375 142.0075 66.4375 142.6875 C65.75042969 142.77386719 65.06335938 142.86023438 64.35546875 142.94921875 C58.71533861 143.67551612 58.71533861 143.67551612 54.375 147 C53.48269255 149.55794803 52.95345347 152.03402502 52.4375 154.6875 C51.7775 155.0175 51.1175 155.3475 50.4375 155.6875 C48.30198818 159.72124456 48.26076581 163.1807782 48.4375 167.6875 C49.0975 167.6875 49.7575 167.6875 50.4375 167.6875 C50.1075 168.6775 49.7775 169.6675 49.4375 170.6875 C50.0975 170.6875 50.7575 170.6875 51.4375 170.6875 C51.14875 171.533125 50.86 172.37875 50.5625 173.25 C49.81023595 175.5485846 49.10192725 177.86200461 48.4375 180.1875 C47.78400893 182.47471874 47.07746207 184.74761168 46.3125 187 C45.33430465 189.53339802 45.33430465 189.53339802 45.4375 191.6875 C44.7775 191.6875 44.1175 191.6875 43.4375 191.6875 C43.7675 194.9875 44.0975 198.2875 44.4375 201.6875 C45.4275 202.0175 46.4175 202.3475 47.4375 202.6875 C48.1328125 204.68359375 48.1328125 204.68359375 48.5625 207.125 C49.16873617 210.5148078 49.16873617 210.5148078 50.4375 213.6875 C51.0975 213.6875 51.7575 213.6875 52.4375 213.6875 C52.66308594 214.45835937 52.88867188 215.22921875 53.12109375 216.0234375 C55.24970876 221.94818789 58.13247565 227.51223976 60.89257812 233.1640625 C61.5509668 234.5253125 61.5509668 234.5253125 62.22265625 235.9140625 C62.62363525 236.73471191 63.02461426 237.55536133 63.43774414 238.40087891 C64.3539314 240.4963636 64.96328057 242.45569079 65.4375 244.6875 C66.0975 244.6875 66.7575 244.6875 67.4375 244.6875 C67.72625 245.595 68.015 246.5025 68.3125 247.4375 C69.26180105 250.54036999 69.26180105 250.54036999 70.5625 252.5625 C71.93339907 255.89182632 71.49531232 259.10313587 71.4375 262.6875 C71.9325 263.6775 71.9325 263.6775 72.4375 264.6875 C72.46320823 267.8900115 72.40925355 271.07685448 72.31054688 274.27734375 C72.2806621 276.08097804 72.35277805 277.88560879 72.4375 279.6875 C73.0975 280.3475 73.7575 281.0075 74.4375 281.6875 C74.68159927 277.43840712 74.89601226 273.18909453 75.08447266 268.93725586 C75.15241711 267.49480466 75.22809195 266.05269398 75.31201172 264.61108398 C75.80212895 256.09308268 75.85267883 249.27751103 71.4375 241.6875 C70.67441941 239.8386782 69.9212762 237.9856468 69.1875 236.125 C68.85234375 235.27808594 68.5171875 234.43117188 68.171875 233.55859375 C67.92953125 232.94113281 67.6871875 232.32367188 67.4375 231.6875 C66.7775 231.6875 66.1175 231.6875 65.4375 231.6875 C65.21191406 230.91535156 64.98632812 230.14320313 64.75390625 229.34765625 C62.63280502 223.45011366 59.75009951 217.91569984 56.98242188 212.29882812 C56.54349609 211.39455078 56.10457031 210.49027344 55.65234375 209.55859375 C55.25136475 208.74318115 54.85038574 207.92776855 54.43725586 207.08764648 C53.41125125 204.62448377 52.87013707 202.31457976 52.4375 199.6875 C51.7775 199.6875 51.1175 199.6875 50.4375 199.6875 C51.31689698 192.2754397 51.31689698 192.2754397 51.9375 189.25 C52.39849277 186.88741208 52.68526514 184.57979001 52.9375 182.1875 C53.8169926 173.9285148 53.8169926 173.9285148 55.4375 170.6875 C57.65234375 170.0546875 57.65234375 170.0546875 60.375 169.5625 C61.27089844 169.39492188 62.16679688 169.22734375 63.08984375 169.0546875 C65.4375 168.6875 65.4375 168.6875 67.4375 168.6875 C67.4375 168.0275 67.4375 167.3675 67.4375 166.6875 C68.9225 167.1825 68.9225 167.1825 70.4375 167.6875 C73.5120356 166.9111068 73.5120356 166.9111068 75.4375 164.6875 C77.4375 162.6875 77.4375 162.6875 80.4375 161.6875 C80.4375 161.0275 80.4375 160.3675 80.4375 159.6875 C81.06567627 159.59307617 81.69385254 159.49865234 82.34106445 159.40136719 C83.03288818 159.16579102 83.72471191 158.93021484 84.4375 158.6875 C85.25935596 156.86485236 86.06774418 155.033537 86.77148438 153.16210938 C90.28379547 144.00759602 90.28379547 144.00759602 94.46728516 141.44335938 C99.29988399 139.46917365 104.29443522 138.48233728 109.4375 137.6875 C109.4375 138.3475 109.4375 139.0075 109.4375 139.6875 C110.0975 139.6875 110.7575 139.6875 111.4375 139.6875 C111.1075 141.0075 110.7775 142.3275 110.4375 143.6875 C111.0975 143.6875 111.7575 143.6875 112.4375 143.6875 C112.1075 145.0075 111.7775 146.3275 111.4375 147.6875 C112.0975 147.6875 112.7575 147.6875 113.4375 147.6875 C113.1075 149.0075 112.7775 150.3275 112.4375 151.6875 C113.0975 151.6875 113.7575 151.6875 114.4375 151.6875 C114.6328125 153.70572917 114.828125 155.72395833 115.0234375 157.7421875 C115.30124749 159.91418245 115.30124749 159.91418245 117.4375 161.6875 C118.76436293 157.70691121 117.64917754 155.65910971 116.4375 151.6875 C116.07479412 149.69261766 115.73109301 147.6937189 115.4375 145.6875 C114.7775 145.6875 114.1175 145.6875 113.4375 145.6875 C113.64246094 145.12546875 113.84742188 144.5634375 114.05859375 143.984375 C114.54769913 141.01948876 113.80005786 139.61640711 112.5 136.9375 C112.11972656 136.13828125 111.73945312 135.3390625 111.34765625 134.515625 C110.89712891 133.61070312 110.89712891 133.61070312 110.4375 132.6875 C110.1075 132.6875 109.7775 132.6875 109.4375 132.6875 Z M117.4375 161.6875 C117.1075 162.3475 116.7775 163.0075 116.4375 163.6875 C117.0975 164.3475 117.7575 165.0075 118.4375 165.6875 C118.1075 164.3675 117.7775 163.0475 117.4375 161.6875 Z M118.4375 165.6875 C118.1075 166.3475 117.7775 167.0075 117.4375 167.6875 C118.0975 168.3475 118.7575 169.0075 119.4375 169.6875 C119.1075 168.3675 118.7775 167.0475 118.4375 165.6875 Z M119.4375 169.6875 C119.1075 170.3475 118.7775 171.0075 118.4375 171.6875 C119.0975 172.3475 119.7575 173.0075 120.4375 173.6875 C120.1075 172.3675 119.7775 171.0475 119.4375 169.6875 Z M-63.5625 173.6875 C-64.64766574 177.77774011 -64.38403485 180.85755492 -63.625 185 C-61.80054594 195.01637359 -62.4358057 200.6147789 -67.0625 209.5625 C-67.90927463 211.24587778 -68.75317697 212.93070447 -69.59375 214.6171875 C-69.97080078 215.35179199 -70.34785156 216.08639648 -70.73632812 216.84326172 C-71.69877565 218.65489811 -71.69877565 218.65489811 -71.5625 220.6875 C-72.5525 221.1825 -72.5525 221.1825 -73.5625 221.6875 C-74.3362731 223.34601366 -75.0300579 225.04202979 -75.6875 226.75 C-77.09723164 230.40768209 -78.47284379 233.55442956 -80.66796875 236.8125 C-89.9654036 250.82849602 -87.2529436 268.59485294 -86.5625 284.6875 C-86.253125 284.06875 -85.94375 283.45 -85.625 282.8125 C-84.9375 281.4375 -84.25 280.0625 -83.5625 278.6875 C-83.51647219 276.17898419 -83.51564432 273.69427877 -83.5625 271.1875 C-83.69763514 263.95777027 -83.69763514 263.95777027 -82.5625 261.6875 C-82.6346875 260.69363281 -82.706875 259.69976562 -82.78125 258.67578125 C-82.48846469 253.33767766 -80.47018366 249.57829796 -78.0625 244.875 C-77.21563624 243.18254405 -76.37173006 241.48860392 -75.53125 239.79296875 C-75.15419922 239.05199951 -74.77714844 238.31103027 -74.38867188 237.54760742 C-73.42719471 235.7220845 -73.42719471 235.7220845 -73.5625 233.6875 C-72.5725 233.1925 -72.5725 233.1925 -71.5625 232.6875 C-70.7887269 231.02898634 -70.0949421 229.33297021 -69.4375 227.625 C-67.00299744 221.54970982 -64.16195392 215.75567959 -61.15380859 209.94506836 C-59.22812234 206.49541945 -59.22812234 206.49541945 -58.5625 202.6875 C-57.5725 202.3575 -56.5825 202.0275 -55.5625 201.6875 C-55.36772261 200.06335622 -55.18190542 198.43813577 -55 196.8125 C-54.89558594 195.90757812 -54.79117188 195.00265625 -54.68359375 194.0703125 C-54.36575148 191.67096943 -54.36575148 191.67096943 -55.5625 189.6875 C-56.2225 189.6875 -56.8825 189.6875 -57.5625 189.6875 C-57.2325 188.6975 -56.9025 187.7075 -56.5625 186.6875 C-57.2225 186.6875 -57.8825 186.6875 -58.5625 186.6875 C-58.665625 185.841875 -58.76875 184.99625 -58.875 184.125 C-59.6453854 180.27307299 -60.92524514 177.24674969 -62.5625 173.6875 C-62.8925 173.6875 -63.2225 173.6875 -63.5625 173.6875 Z M120.4375 173.6875 C120.7675 175.0075 121.0975 176.3275 121.4375 177.6875 C121.7675 177.0275 122.0975 176.3675 122.4375 175.6875 C121.7775 175.0275 121.1175 174.3675 120.4375 173.6875 Z M121.4375 177.6875 C121.1075 179.0075 120.7775 180.3275 120.4375 181.6875 C121.4275 181.3575 122.4175 181.0275 123.4375 180.6875 C123.4375 179.6975 123.4375 178.7075 123.4375 177.6875 C122.7775 177.6875 122.1175 177.6875 121.4375 177.6875 Z M122.4375 181.6875 C122.1075 182.3475 121.7775 183.0075 121.4375 183.6875 C122.0975 184.3475 122.7575 185.0075 123.4375 185.6875 C123.7675 185.0275 124.0975 184.3675 124.4375 183.6875 C123.7775 183.0275 123.1175 182.3675 122.4375 181.6875 Z M123.4375 185.6875 C124.4375 189.6875 124.4375 189.6875 124.4375 189.6875 Z M-54.5625 219.6875 C-53.5625 223.6875 -53.5625 223.6875 -53.5625 223.6875 Z M-54.5625 235.6875 C-54.5625 239.3175 -54.5625 242.9475 -54.5625 246.6875 C-54.2325 246.6875 -53.9025 246.6875 -53.5625 246.6875 C-53.5625 243.0575 -53.5625 239.4275 -53.5625 235.6875 C-53.8925 235.6875 -54.2225 235.6875 -54.5625 235.6875 Z M42.4375 243.6875 C42.4375 245.3375 42.4375 246.9875 42.4375 248.6875 C42.7675 248.6875 43.0975 248.6875 43.4375 248.6875 C43.4375 247.0375 43.4375 245.3875 43.4375 243.6875 C43.1075 243.6875 42.7775 243.6875 42.4375 243.6875 Z M-42.5625 255.6875 C-44.22873639 255.72536901 -45.89647597 255.73377845 -47.5625 255.6875 C-47.5625 256.3475 -47.5625 257.0075 -47.5625 257.6875 C-48.8825 258.0175 -50.2025 258.3475 -51.5625 258.6875 C-52.52013054 262.62442555 -52.53859411 265.7426404 -51.5625 269.6875 C-48.4151918 274.65646663 -44.18842635 278.84555482 -40.10351562 283.04589844 C-38.5625 284.6875 -38.5625 284.6875 -36.265625 287.6328125 C-35.70359375 288.31085938 -35.1415625 288.98890625 -34.5625 289.6875 C-33.9025 289.6875 -33.2425 289.6875 -32.5625 289.6875 C-32.5625 284.4075 -32.5625 279.1275 -32.5625 273.6875 C-36.5225 274.0175 -40.4825 274.3475 -44.5625 274.6875 C-46.32865118 269.97776351 -47.04844831 265.65666636 -47.5625 260.6875 C-43.68565913 259.49462589 -40.64628077 258.6875 -36.5625 258.6875 C-36.5625 258.0275 -36.5625 257.3675 -36.5625 256.6875 C-34.2525 257.0175 -31.9425 257.3475 -29.5625 257.6875 C-29.5625 256.6975 -29.5625 255.7075 -29.5625 254.6875 C-30.97905793 254.6602585 -32.39577045 254.64099533 -33.8125 254.625 C-34.60140625 254.61339844 -35.3903125 254.60179687 -36.203125 254.58984375 C-38.47845019 254.68402112 -40.37185213 255.10332723 -42.5625 255.6875 Z M15.4375 255.6875 C15.7675 256.6775 16.0975 257.6675 16.4375 258.6875 C16.4375 257.6975 16.4375 256.7075 16.4375 255.6875 C16.1075 255.6875 15.7775 255.6875 15.4375 255.6875 Z M17.4375 255.6875 C17.7675 256.3475 18.0975 257.0075 18.4375 257.6875 C19.18 257.666875 19.9225 257.64625 20.6875 257.625 C23.20049833 257.6821136 25.03071063 258.0504087 27.4375 258.6875 C29.76844534 259.0371418 32.10154762 259.37304487 34.4375 259.6875 C35.0975 261.6675 35.7575 263.6475 36.4375 265.6875 C35.7775 265.6875 35.1175 265.6875 34.4375 265.6875 C34.4375 268.3275 34.4375 270.9675 34.4375 273.6875 C29.89758133 275.09320876 26.09900364 274.30446372 21.4375 273.6875 C21.4375 278.9675 21.4375 284.2475 21.4375 289.6875 C22.0975 290.0175 22.7575 290.3475 23.4375 290.6875 C24.60999353 289.23384731 25.77533816 287.77442581 26.9375 286.3125 C27.5871875 285.50039063 28.236875 284.68828125 28.90625 283.8515625 C30.63003615 281.85723157 30.63003615 281.85723157 30.4375 279.6875 C31.0975 279.6875 31.7575 279.6875 32.4375 279.6875 C33.81232707 278.05489286 35.14397667 276.38524938 36.4375 274.6875 C37.77083333 273.35416667 39.10416667 272.02083333 40.4375 270.6875 C40.90146693 267.79526497 40.90146693 267.79526497 41.0625 264.5625 C41.13726563 263.46679688 41.21203125 262.37109375 41.2890625 261.2421875 C41.33804688 260.39914062 41.38703125 259.55609375 41.4375 258.6875 C37.27562305 255.91291536 32.8211904 255.27035418 27.9375 256.125 C27.4425 256.310625 26.9475 256.49625 26.4375 256.6875 C26.4375 256.0275 26.4375 255.3675 26.4375 254.6875 C23.16474974 254.6875 20.590868 254.98675156 17.4375 255.6875 Z M-28.5625 256.6875 C-28.2325 257.3475 -27.9025 258.0075 -27.5625 258.6875 C-27.2325 258.0275 -26.9025 257.3675 -26.5625 256.6875 C-27.2225 256.6875 -27.8825 256.6875 -28.5625 256.6875 Z M-26.5625 257.6875 C-26.2325 258.3475 -25.9025 259.0075 -25.5625 259.6875 C-25.2325 259.0275 -24.9025 258.3675 -24.5625 257.6875 C-25.2225 257.6875 -25.8825 257.6875 -26.5625 257.6875 Z M14.4375 257.6875 C15.4375 259.6875 15.4375 259.6875 15.4375 259.6875 Z M-24.5625 258.6875 C-23.5625 260.6875 -23.5625 260.6875 -23.5625 260.6875 Z M-13.5625 264.6875 C-10.62519255 267.18965079 -8.4572813 268.50634738 -4.5625 268.6875 C-2.08973861 267.87870096 0.08960122 266.83843077 2.4375 265.6875 C-2.58052656 262.34214896 -7.85238023 263.57333029 -13.5625 264.6875 Z M-85.5625 284.6875 C-84.5625 286.6875 -84.5625 286.6875 -84.5625 286.6875 Z M73.4375 284.6875 C73.7675 285.3475 74.0975 286.0075 74.4375 286.6875 C74.7675 286.0275 75.0975 285.3675 75.4375 284.6875 C74.7775 284.6875 74.1175 284.6875 73.4375 284.6875 Z M-84.5625 287.6875 C-83.5625 289.6875 -83.5625 289.6875 -83.5625 289.6875 Z M67.4375 302.6875 C68.4375 304.6875 68.4375 304.6875 68.4375 304.6875 Z M-11.5625 309.6875 C-11.5625 313.3175 -11.5625 316.9475 -11.5625 320.6875 C-10.2425 320.3575 -8.9225 320.0275 -7.5625 319.6875 C-7.5625 319.0275 -7.5625 318.3675 -7.5625 317.6875 C-6.2425 317.6875 -4.9225 317.6875 -3.5625 317.6875 C-3.2325 318.3475 -2.9025 319.0075 -2.5625 319.6875 C-1.06506881 318.19006881 -1.23047307 316.69925761 -1 314.625 C-0.855625 313.325625 -0.71125 312.02625 -0.5625 310.6875 C-1.14 311.038125 -1.7175 311.38875 -2.3125 311.75 C-4.98018223 312.86153426 -5.90912399 312.7146133 -8.5625 311.6875 C-9.5525 311.0275 -10.5425 310.3675 -11.5625 309.6875 Z M-1.5625 318.6875 C-0.5625 320.6875 -0.5625 320.6875 -0.5625 320.6875 Z M-43.5625 330.6875 C-43.2325 331.3475 -42.9025 332.0075 -42.5625 332.6875 C-42.2325 332.0275 -41.9025 331.3675 -41.5625 330.6875 C-42.2225 330.6875 -42.8825 330.6875 -43.5625 330.6875 Z M-55.5625 332.6875 C-54.5625 334.6875 -54.5625 334.6875 -54.5625 334.6875 Z M-48.5625 332.6875 C-47.5625 334.6875 -47.5625 334.6875 -47.5625 334.6875 Z M33.4375 332.6875 C33.4375 333.3475 33.4375 334.0075 33.4375 334.6875 C34.0975 334.3575 34.7575 334.0275 35.4375 333.6875 C34.7775 333.3575 34.1175 333.0275 33.4375 332.6875 Z M36.4375 333.6875 C37.4375 335.6875 37.4375 335.6875 37.4375 335.6875 Z " fill="#FFFFFF" transform="translate(505.5625,210.3125)"/>
<path d="M0 0 C3.1875 2.125 3.1875 2.125 5 4 C5.99 3.01 6.98 2.02 8 1 C8.99 1.66 9.98 2.32 11 3 C11.66 3 12.32 3 13 3 C13.58267363 11.64407114 11.98189234 18.64811338 9.25 26.8125 C8.50969214 29.12086151 7.77010119 31.42945308 7.03125 33.73828125 C6.49951172 35.37337646 6.49951172 35.37337646 5.95703125 37.04150391 C2.97438879 46.26182569 0.60181997 55.55389153 -1.42407227 65.0246582 C-2.80729138 71.39262183 -4.50024042 77.64823157 -6.33764648 83.89941406 C-7.60241796 88.26779841 -8.37592451 92.48463026 -9 97 C-9.87695791 101.61704665 -10.84278339 106.21416639 -11.8125 110.8125 C-12.06064453 112.03259766 -12.30878906 113.25269531 -12.56445312 114.50976562 C-14.29308859 122.69549234 -16.27751729 130.56336151 -20.6875 137.75 C-22.21115692 140.03307839 -22.21115692 140.03307839 -22.4375 143.1875 C-23 146 -23 146 -24.875 147.375 C-27 148 -27 148 -30 148 C-30 148.66 -30 149.32 -30 150 C-34.93270529 151.6442351 -37.54024193 150.18615592 -42 148 C-42 147.34 -42 146.68 -42 146 C-43.32 146.33 -44.64 146.66 -46 147 C-50.93559527 139.41563527 -56 131.27835364 -56 122 C-56.99 121.505 -56.99 121.505 -58 121 C-58.52734375 119.1796875 -58.52734375 119.1796875 -58.9375 116.875 C-59.79331187 112.62289534 -61.20629609 108.96109613 -63 105 C-63.67939174 103.00428677 -64.34561559 101.00405227 -65 99 C-65.54074346 97.64546441 -66.08245923 96.2913167 -66.625 94.9375 C-67.55393216 92.51678517 -68.00301868 91.12074734 -67.9375 88.5 C-68.00761345 85.69546216 -68.66525706 84.55265093 -70 82.125 C-72.08430203 78.27705779 -72.17564407 75.39110171 -72 71 C-72.99 70.01 -72.99 70.01 -74 69 C-74.27674561 70.15298584 -74.55349121 71.30597168 -74.83862305 72.49389648 C-75.88735575 76.85806474 -76.94180484 81.22083651 -77.99780273 85.58325195 C-78.45015837 87.45528373 -78.90105553 89.32766866 -79.3503418 91.20043945 C-81.80137824 101.41263487 -84.33478184 111.56679504 -87.40446472 121.61314392 C-88.45485882 125.05797545 -89.34437535 128.45915064 -90 132 C-90.45131952 133.52932842 -90.93011081 135.05084828 -91.4375 136.5625 C-91.68371094 137.30628906 -91.92992187 138.05007813 -92.18359375 138.81640625 C-92.98772355 140.9671649 -93.93529538 142.96738209 -95 145 C-95.66 144.67 -96.32 144.34 -97 144 C-97 143.34 -97 142.68 -97 142 C-97.99 142.99 -97.99 142.99 -99 144 C-98.34 144.99 -97.68 145.98 -97 147 C-97 147.66 -97 148.32 -97 149 C-98.32 149 -99.64 149 -101 149 C-101.33 149.66 -101.66 150.32 -102 151 C-103.32 151 -104.64 151 -106 151 C-106 151.99 -106 152.98 -106 154 C-106.66 154 -107.32 154 -108 154 C-108.33 153.34 -108.66 152.68 -109 152 C-111.52733235 151.34444881 -111.52733235 151.34444881 -114 151 C-114 150.34 -114 149.68 -114 149 C-113.34 148.67 -112.68 148.34 -112 148 C-112.66 147.67 -113.32 147.34 -114 147 C-113.505 145.02 -113.505 145.02 -113 143 C-114.98 143.99 -114.98 143.99 -117 145 C-119.73829036 140.3583502 -120.31073801 137.34580082 -119.8125 132 C-119.71582031 130.824375 -119.61914062 129.64875 -119.51953125 128.4375 C-119.01085475 125.07182091 -118.07933199 122.220302 -117 119 C-116.49656758 117.03470263 -116.01790919 115.0629151 -115.5625 113.0859375 C-115.30726563 111.99539063 -115.05203125 110.90484375 -114.7890625 109.78125 C-114.26130308 107.5030014 -113.73527226 105.22435171 -113.2109375 102.9453125 C-112.95570313 101.85734375 -112.70046875 100.769375 -112.4375 99.6484375 C-112.20933594 98.66020996 -111.98117187 97.67198242 -111.74609375 96.65380859 C-111.06133886 94.21817847 -110.13334803 92.24559649 -109 90 C-108.83249586 87.33290931 -108.83249586 87.33290931 -109 85 C-108.34 85 -107.68 85 -107 85 C-107.04125 84.13375 -107.0825 83.2675 -107.125 82.375 C-106.99332999 78.8199098 -106.14367681 76.35258328 -105 73 C-104.4951012 70.96454411 -104.01661891 68.92238357 -103.5625 66.875 C-98.21929825 43.23538012 -98.21929825 43.23538012 -95.875 38.9375 C-94.798494 36.90812796 -94.798494 36.90812796 -95 34.0625 C-95 31 -95 31 -94.109375 28.77734375 C-93.01721988 26.04311033 -92.35123797 23.34644821 -91.70874023 20.47827148 C-89.39401735 10.49626002 -89.39401735 10.49626002 -86.4375 7.4375 C-81.40049131 5.33111455 -77.07127599 6.15300466 -72 8 C-70.35546875 9.53125 -70.35546875 9.53125 -69 11 C-68.01 11.33 -67.02 11.66 -66 12 C-66 11.34 -66 10.68 -66 10 C-62.65845288 10.55692452 -59.88354348 11.19117843 -57 13 C-56.12890625 14.7421875 -56.12890625 14.7421875 -55.5625 16.875 C-54.10057872 21.85845543 -52.14160618 26.53536749 -50.0859375 31.30078125 C-49.17949054 33.55385625 -48.52409508 35.63907645 -48 38 C-47.690625 39.0725 -47.38125 40.145 -47.0625 41.25 C-43.82978723 52.65957447 -43.82978723 52.65957447 -45 55 C-43.515 55.495 -43.515 55.495 -42 56 C-41.16311718 58.44214914 -40.51049162 60.74581441 -39.9375 63.25 C-38.88710755 67.62874444 -37.80605427 71.85811554 -36 76 C-35.86464844 75.195625 -35.72929688 74.39125 -35.58984375 73.5625 C-33.85409844 64.08345976 -31.34336693 54.95350874 -28.51342773 45.7421875 C-26.76720653 39.97846313 -25.39770728 34.30961762 -24.45092773 28.359375 C-23.91459647 25.55314582 -22.93961074 23.00287445 -21.83984375 20.37109375 C-20.90652931 17.73610832 -20.29445324 15.06830875 -19.66918945 12.34643555 C-17.32282455 2.43890083 -17.32282455 2.43890083 -14.4375 -0.5625 C-9.29678313 -2.71225433 -5.17978416 -1.78694682 0 0 Z M-87 42 C-86 44 -86 44 -86 44 Z M-81 48 C-80 50 -80 50 -80 50 Z M-89 49 C-88 51 -88 51 -88 51 Z M-81 51 C-80.67 51.99 -80.34 52.98 -80 54 C-79.34 54 -78.68 54 -78 54 C-78 53.34 -78 52.68 -78 52 C-78.99 51.67 -79.98 51.34 -81 51 Z M-80 55 C-80 56.65 -80 58.3 -80 60 C-79.34 58.68 -78.68 57.36 -78 56 C-78.66 55.67 -79.32 55.34 -80 55 Z M-80 74 C-79 76 -79 76 -79 76 Z M-107 116 C-106 118 -106 118 -106 118 Z M-109 124 C-108 126 -108 126 -108 126 Z M-31 141 C-31 141.66 -31 142.32 -31 143 C-30.01 142.67 -29.02 142.34 -28 142 C-28.99 141.67 -29.98 141.34 -31 141 Z M-27 141 C-26 143 -26 143 -26 143 Z " fill="#FFFFFF" transform="translate(672,585)"/>
<path d="M0 0 C8.90084396 6.65315609 14.65488245 13.84131883 16.79296875 24.953125 C19.17960665 45.3629939 11.11852444 61.19087558 -0.7421875 77.171875 C-2.97369332 79.94505339 -5.29966354 82.58389055 -7.7421875 85.171875 C-8.5259375 86.038125 -9.3096875 86.904375 -10.1171875 87.796875 C-23.29278471 99.71765343 -37.85820326 99.65787455 -54.7421875 99.171875 C-54.53722656 99.87699219 -54.33226562 100.58210937 -54.12109375 101.30859375 C-53.65944437 104.79714008 -54.38760294 106.73458655 -55.6796875 109.984375 C-56.05996094 110.96019531 -56.44023437 111.93601562 -56.83203125 112.94140625 C-57.13238281 113.67746094 -57.43273437 114.41351562 -57.7421875 115.171875 C-58.4021875 115.171875 -59.0621875 115.171875 -59.7421875 115.171875 C-59.4121875 116.821875 -59.0821875 118.471875 -58.7421875 120.171875 C-59.7321875 120.501875 -60.7221875 120.831875 -61.7421875 121.171875 C-61.7421875 122.491875 -61.7421875 123.811875 -61.7421875 125.171875 C-62.4021875 125.171875 -63.0621875 125.171875 -63.7421875 125.171875 C-63.7421875 127.151875 -63.7421875 129.131875 -63.7421875 131.171875 C-64.7321875 131.501875 -65.7221875 131.831875 -66.7421875 132.171875 C-67.4021875 130.851875 -68.0621875 129.531875 -68.7421875 128.171875 C-69.7321875 130.151875 -70.7221875 132.131875 -71.7421875 134.171875 C-72.7321875 134.171875 -73.7221875 134.171875 -74.7421875 134.171875 C-75.4021875 136.151875 -76.0621875 138.131875 -76.7421875 140.171875 C-78.7221875 139.511875 -80.7021875 138.851875 -82.7421875 138.171875 C-82.7215625 137.3675 -82.7009375 136.563125 -82.6796875 135.734375 C-82.44585129 133.23832615 -82.44585129 133.23832615 -83.7421875 132.171875 C-83.56130355 129.31390864 -83.22108979 126.48583158 -82.8984375 123.640625 C-82.846875 122.8259375 -82.7953125 122.01125 -82.7421875 121.171875 C-83.0721875 120.841875 -83.4021875 120.511875 -83.7421875 120.171875 C-83.7421875 121.821875 -83.7421875 123.471875 -83.7421875 125.171875 C-85.0621875 125.171875 -86.3821875 125.171875 -87.7421875 125.171875 C-89.09177371 118.32136141 -88.11880059 113.30188451 -86.20703125 106.6484375 C-85.93253647 105.64817535 -85.65804169 104.64791321 -85.37522888 103.61734009 C-84.79728189 101.51539589 -84.21318288 99.41513445 -83.62322998 97.31652832 C-82.7765925 94.29467474 -81.95233309 91.26779344 -81.13720703 88.23730469 C-79.81470953 83.32347401 -78.47218 78.41547058 -77.11987305 73.50976562 C-76.5756257 71.5316327 -76.0339656 69.55278614 -75.49487305 67.57324219 C-71.69122412 53.60702356 -67.46056064 39.85666287 -62.7421875 26.171875 C-66.86701978 26.0638909 -66.86701978 26.0638909 -70.890625 26.796875 C-72.7421875 27.171875 -72.7421875 27.171875 -74.59375 26.421875 C-79.26455109 23.1296804 -80.74675543 20.81265672 -81.7421875 15.171875 C-81.4121875 14.841875 -81.0821875 14.511875 -80.7421875 14.171875 C-80.8659375 13.0375 -80.9896875 11.903125 -81.1171875 10.734375 C-81.13916713 4.61304781 -77.92132724 0.40068194 -73.7421875 -3.828125 C-69.94531832 -6.45284402 -66.04726013 -8.19004742 -61.7421875 -9.828125 C-60.66839844 -10.240625 -59.59460938 -10.653125 -58.48828125 -11.078125 C-37.0877445 -18.2199032 -18.13697638 -12.09131759 0 0 Z M-28.7421875 19.171875 C-32.98493708 29.58740927 -36.38361261 40.22244098 -39.6171875 50.984375 C-39.9241304 51.99893768 -39.9241304 51.99893768 -40.23727417 53.03399658 C-40.82476981 54.98075943 -41.40471191 56.92979686 -41.984375 58.87890625 C-42.3232373 60.0181958 -42.66209961 61.15748535 -43.01123047 62.33129883 C-43.86679167 65.16724723 -43.86679167 65.16724723 -43.7421875 68.171875 C-35.69912401 68.08031365 -35.69912401 68.08031365 -28.3671875 65.171875 C-21.36983589 57.17490173 -16.16954716 49.04567498 -16.4296875 38.109375 C-16.42646484 37.42810547 -16.42324219 36.74683594 -16.41992188 36.04492188 C-16.47230652 31.08742979 -16.98107365 26.41329263 -20.1171875 22.421875 C-23.04828149 20.16718731 -25.00292841 19.171875 -28.7421875 19.171875 Z M-73.7421875 129.171875 C-72.7421875 131.171875 -72.7421875 131.171875 -72.7421875 131.171875 Z " fill="#FFFFFF" transform="translate(430.7421875,598.828125)"/>
<path d="M0 0 C2.13708773 1.21683159 4.02127422 2.5286398 6 4 C6.33 3.01 6.66 2.02 7 1 C7 1.66 7 2.32 7 3 C8.32 3.33 9.64 3.66 11 4 C11 5.65 11 7.3 11 9 C10.01 9 9.02 9 8 9 C8 9.66 8 10.32 8 11 C8.804375 11.144375 9.60875 11.28875 10.4375 11.4375 C13 12 13 12 14 13 C14.08713831 14.70772358 14.10700007 16.41898649 14.09765625 18.12890625 C14.09282227 19.68061523 14.09282227 19.68061523 14.08789062 21.26367188 C14.07532227 22.8965918 14.07532227 22.8965918 14.0625 24.5625 C14.05798828 25.65498047 14.05347656 26.74746094 14.04882812 27.87304688 C14.03699826 30.58208495 14.02051543 33.29101599 14 36 C12.515 36.495 12.515 36.495 11 37 C11.99 37 12.98 37 14 37 C14.25560997 50.55322718 13.8256626 63.90636811 12.71362305 77.41674805 C12.12356195 84.75202771 11.89827908 91.93823338 11.9765625 99.296875 C12.11278195 120.81954887 12.11278195 120.81954887 6 130 C6.66 130 7.32 130 8 130 C7.71640113 131.4391134 7.42278601 132.87625518 7.125 134.3125 C6.96257812 135.11300781 6.80015625 135.91351562 6.6328125 136.73828125 C6 139 6 139 4 142 C3.34 142 2.68 142 2 142 C2.33 140.68 2.66 139.36 3 138 C1.68 137.67 0.36 137.34 -1 137 C-1 137.66 -1 138.32 -1 139 C-0.34 139 0.32 139 1 139 C-0.42034173 143.13190321 -2.52772967 146.58161015 -4.87890625 150.23046875 C-6.04331625 152.0025431 -6.04331625 152.0025431 -7 154 C-9.62178605 153.63837434 -10.72864537 153.33034477 -12.4375 151.25 C-13.2109375 150.13625 -13.2109375 150.13625 -14 149 C-14.9075 148.175 -15.815 147.35 -16.75 146.5 C-17.4925 145.675 -18.235 144.85 -19 144 C-18.70982835 142.65661275 -18.3735659 141.3226252 -18 140 C-18.33 138.9275 -18.66 137.855 -19 136.75 C-20.54511517 131.22878847 -19.74180881 125.70675075 -19.29296875 120.078125 C-18.87171686 114.71949736 -18.90843946 109.37155145 -19 104 C-27.92866512 105.06162637 -27.92866512 105.06162637 -36.5 107.625 C-39.69718646 108.88103754 -41.63010384 109.31592776 -45 109 C-45.86625 110.546875 -45.86625 110.546875 -46.75 112.125 C-48.14063883 114.59338392 -49.56127375 116.76395594 -51.25 119.0625 C-53.25057128 121.85072349 -53.25057128 121.85072349 -53 124.9375 C-53 128.63054497 -54.06806129 130.27989216 -55.98828125 133.33203125 C-57.13764286 135.11682493 -57.13764286 135.11682493 -58.0625 137.75 C-59.05414647 140.12995152 -59.98713609 141.40648274 -62 143 C-62.66 143 -63.32 143 -64 143 C-64.33 143.99 -64.66 144.98 -65 146 C-67.97567859 148.30070759 -71.25921154 150.15973527 -75.0859375 149.80859375 C-77 149.25 -77 149.25 -80 148 C-80.33 146.68 -80.66 145.36 -81 144 C-81.66 144 -82.32 144 -83 144 C-86.92475318 136.99151218 -87.5073986 130.74517412 -86 123 C-84.77228739 119.49810081 -83.18253113 116.24128836 -81.5 112.9375 C-81.05221191 112.03064453 -80.60442383 111.12378906 -80.14306641 110.18945312 C-78.78122372 107.44944677 -77.39501585 104.72324368 -76 102 C-75.59620117 101.20480957 -75.19240234 100.40961914 -74.77636719 99.59033203 C-70.4989879 91.19953366 -65.90904968 83.13586102 -60.89453125 75.1640625 C-58.27455374 70.78842995 -56.076486 66.24233944 -53.84375 61.66015625 C-51.89877586 57.72880295 -49.74084543 53.93062134 -47.5625 50.125 C-44.40611415 44.5945688 -41.40830555 39.00937259 -38.5625 33.3125 C-38.06762085 32.3237085 -38.06762085 32.3237085 -37.56274414 31.31494141 C-36.30144182 28.76331857 -35.0875444 26.22826206 -34.06787109 23.56958008 C-33.00347705 21.00836671 -31.76260193 18.8050272 -30.28515625 16.4609375 C-29.76373047 15.63335938 -29.24230469 14.80578125 -28.70507812 13.953125 C-28.16302734 13.10234375 -27.62097656 12.2515625 -27.0625 11.375 C-26.52431641 10.51648438 -25.98613281 9.65796875 -25.43164062 8.7734375 C-18.35052703 -2.40267274 -12.65867766 -5.30776133 0 0 Z M3 20 C4 22 4 22 4 22 Z M10 39 C11 43 11 43 11 43 Z M10 46 C11 50 11 50 11 50 Z M-17 54 C-21.15466724 59.53955632 -23.97626829 65.79703037 -27 72 C-27.66490475 73.33421284 -28.33078516 74.6679438 -29 76 C-27.1128125 75.7525 -27.1128125 75.7525 -25.1875 75.5 C-22.73543415 75.17841759 -20.48349306 75 -18 75 C-16.49025965 67.90961228 -15.71692075 61.24997422 -16 54 C-16.33 54 -16.66 54 -17 54 Z M3 58 C4 60 4 60 4 60 Z M2 60 C3 62 3 62 3 62 Z M2 83 C3 85 3 85 3 85 Z M2 92 C3 95 3 95 3 95 Z M-14 129 C-13 131 -13 131 -13 131 Z M-66 139 C-66 139.99 -66 140.98 -66 142 C-65.34 141.67 -64.68 141.34 -64 141 C-64.66 140.34 -65.32 139.68 -66 139 Z M-14 146 C-13.34 146.66 -12.68 147.32 -12 148 C-11.67 147.34 -11.34 146.68 -11 146 C-11.99 146 -12.98 146 -14 146 Z " fill="#FFFFFF" transform="translate(322,586)"/>
<path d="M0 0 C0 0.66 0 1.32 0 2 C1.98 2 3.96 2 6 2 C6 2.99 6 3.98 6 5 C5.34 5 4.68 5 4 5 C5.07381517 6.77662117 6.159458 8.54609689 7.25 10.3125 C7.85328125 11.29863281 8.4565625 12.28476562 9.078125 13.30078125 C10.78673969 16.05966652 10.78673969 16.05966652 13.2109375 17.40234375 C15 19 15 19 15.4609375 22.328125 C15.43257812 23.62234375 15.40421875 24.9165625 15.375 26.25 C15.36210938 27.53390625 15.34921875 28.8178125 15.3359375 30.140625 C14.99271101 34.08373864 14.21279926 37.25487589 13 41 C12.34 41 11.68 41 11 41 C11 43.31 11 45.62 11 48 C10.34 48 9.68 48 9 48 C9 49.65 9 51.3 9 53 C7.35 53 5.7 53 4 53 C4 53.66 4 54.32 4 55 C2.515 55.495 2.515 55.495 1 56 C0.67 55.01 0.34 54.02 0 53 C-0.99 53 -1.98 53 -3 53 C-3 54.65 -3 56.3 -3 58 C-4.8125 59.0625 -4.8125 59.0625 -7 60 C-8.485 59.505 -8.485 59.505 -10 59 C-10 58.34 -10 57.68 -10 57 C-11.32 57 -12.64 57 -14 57 C-13.67 55.02 -13.34 53.04 -13 51 C-11.68 51 -10.36 51 -9 51 C-9.66 50.34 -10.32 49.68 -11 49 C-11.33 49.33 -11.66 49.66 -12 50 C-13.66617115 50.04063832 -15.33388095 50.042721 -17 50 C-16.67 49.01 -16.34 48.02 -16 47 C-16.1974652 44.3242035 -16.46303709 41.71794263 -16.8125 39.0625 C-16.89564453 38.34642578 -16.97878906 37.63035156 -17.06445312 36.89257812 C-17.52773971 33.24377352 -18.0485334 30.1536359 -20 27 C-20.39832031 27.49371094 -20.79664063 27.98742187 -21.20703125 28.49609375 C-21.73683594 29.13675781 -22.26664063 29.77742187 -22.8125 30.4375 C-23.33457031 31.07558594 -23.85664062 31.71367188 -24.39453125 32.37109375 C-26 34 -26 34 -29 35 C-41.76359717 48.76466361 -46.65367112 74.79039189 -47 93 C-46.65714827 96.28158085 -46.04642704 98.86071887 -45 102 C-36.1812784 96.45824202 -36.1812784 96.45824202 -28.8125 89.25 C-26.71891793 86.65107053 -25.10744185 86.06307221 -22 85 C-21.34 84.34 -20.68 83.68 -20 83 C-16.375 82.875 -16.375 82.875 -13 83 C-12.505 81.02 -12.505 81.02 -12 79 C-5.25 79.875 -5.25 79.875 -3 81 C-3 83.31 -3 85.62 -3 88 C-4.485 88.495 -4.485 88.495 -6 89 C-6 89.99 -6 90.98 -6 92 C-4.35 91.67 -2.7 91.34 -1 91 C-0.505 89.02 -0.505 89.02 0 87 C2.31 87 4.62 87 7 87 C6.57841258 92.62354745 5.02855018 96.231252 1.6875 100.8125 C1.29626953 101.38419922 0.90503906 101.95589844 0.50195312 102.54492188 C-1.71066363 105.66753689 -3.48599152 107.51531277 -7 109 C-8.34294481 110.65893182 -9.67744688 112.32476605 -11 114 C-11.66 114 -12.32 114 -13 114 C-13.37125 114.86625 -13.37125 114.86625 -13.75 115.75 C-15.20102171 118.36183907 -16.72798369 120.06210373 -19 122 C-19.61488281 122.11601563 -20.22976563 122.23203125 -20.86328125 122.3515625 C-23.82272851 123.24967629 -25.16852824 124.97687627 -27.3125 127.1875 C-33.96919773 133.37013023 -42.43991296 137.60285093 -51.609375 138.2578125 C-58.16743685 137.75915803 -65.675231 135.37671732 -70.58984375 130.8203125 C-82.16166304 115.88272859 -81.43274662 98.57476059 -79.50390625 80.55078125 C-78.23150722 70.90415423 -75.73769218 61.99279541 -72 53 C-71.67725098 52.19771973 -71.35450195 51.39543945 -71.02197266 50.56884766 C-62.3511427 29.0488098 -51.12069304 6.11263272 -28.84375 -3.9765625 C-17.68928896 -8.17912353 -10.11204332 -5.83788068 0 0 Z M-7 87 C-6 89 -6 89 -6 89 Z M-8 92 C-8.33 92.66 -8.66 93.32 -9 94 C-8.01 93.67 -7.02 93.34 -6 93 C-6.66 92.67 -7.32 92.34 -8 92 Z M-6 97 C-5 99 -5 99 -5 99 Z " fill="#FFFFFF" transform="translate(755,592)"/>
<path d="M0 0 C0.66 0 1.32 0 2 0 C2.0501123 0.56283691 2.10022461 1.12567383 2.15185547 1.70556641 C2.38913165 4.34573468 2.63136291 6.98541104 2.875 9.625 C2.96305908 10.58688232 3.05111816 11.54876465 3.1418457 12.53979492 C3.64362468 17.84108311 4.2908452 23.06066473 5.1875 28.3125 C6.71005356 38.61714252 6.01022451 48.22944765 2.875 58.125 C0.17804759 67.24419162 1.11636788 76.058769 1.84179688 85.43652344 C2.08005181 89.29713587 2.04725311 93.13312078 2 97 C2.71349609 95.89205078 2.71349609 95.89205078 3.44140625 94.76171875 C13.43613012 80.27581141 30.16327666 69.41719954 46 62 C44.77330369 73.38101578 35.77993656 83.17715938 28 91 C27.2265625 91.82564453 27.2265625 91.82564453 26.4375 92.66796875 C21.95456961 97.02248186 16.37371203 99.48557564 10.77319336 102.10986328 C3.5361288 105.53222318 -0.2708867 108.71067851 -3.375 116.25 C-6.75181063 123.92011167 -10.88316808 130.93207708 -15.375 138 C-16.02782959 139.02915527 -16.68065918 140.05831055 -17.35327148 141.11865234 C-18.64043176 143.14397309 -19.92873212 145.1685698 -21.21826172 147.19238281 C-28.95646192 159.38603893 -35.41975828 171.67288638 -41 185 C-40.24847656 184.24203125 -39.49695313 183.4840625 -38.72265625 182.703125 C-31.390192 175.42326093 -23.8963238 171.45498962 -14.46679688 167.42700195 C-8.27998365 164.73097199 -3.22889167 161.72867428 2.00390625 157.43359375 C4 156 4 156 7 156 C-0.42572003 175.66246994 -14.48179087 186.74825802 -32.87304688 195.59765625 C-38.50018996 198.39822779 -42.64776627 200.58863738 -46 206 C-47.02390516 210.55269188 -47.11627635 214.93091166 -47.09765625 219.5859375 C-47.09553383 220.63861313 -47.09553383 220.63861313 -47.09336853 221.71255493 C-47.0878129 223.93341504 -47.07526892 226.15417084 -47.0625 228.375 C-47.05747926 229.88932145 -47.05291736 231.4036445 -47.04882812 232.91796875 C-47.03785807 236.61201252 -47.02062449 240.30599606 -47 244 C-45.16683859 241.25025789 -43.75747657 238.47935443 -42.3359375 235.50390625 C-38.90051449 228.35770189 -35.37553494 221.90485457 -30 216 C-29.33871094 215.27039063 -28.67742187 214.54078125 -27.99609375 213.7890625 C-24.28230709 209.88500594 -21.01849264 207.00739706 -16 205 C-13.19138032 209.95638768 -13.85499962 214.63421391 -15 220 C-19.44492378 233.66675733 -26.69917031 247.3174664 -39.4375 254.6875 C-40.09621094 255.02136719 -40.75492188 255.35523438 -41.43359375 255.69921875 C-43.16545558 256.93090678 -43.16545558 256.93090678 -43.875 259.125 C-44.0502551 263.15586728 -42.87464904 266.55897553 -41.5625 270.3125 C-41.2931665 271.09923096 -41.02383301 271.88596191 -40.74633789 272.6965332 C-37.38483414 282.18040257 -33.29895558 291.71819163 -27.19140625 299.76953125 C-26.10666016 301.36861328 -26.10666016 301.36861328 -25 303 C-25.33 303.99 -25.66 304.98 -26 306 C-28.39027728 305.63079564 -29.64859235 305.43413383 -31.20092773 303.51635742 C-31.52520752 302.88576416 -31.8494873 302.2551709 -32.18359375 301.60546875 C-32.55170166 300.90236572 -32.91980957 300.1992627 -33.29907227 299.47485352 C-33.67475342 298.72002686 -34.05043457 297.9652002 -34.4375 297.1875 C-34.82929443 296.42300537 -35.22108887 295.65851074 -35.62475586 294.87084961 C-44 278.31964812 -44 278.31964812 -44 274 C-44.90878906 273.85304688 -44.90878906 273.85304688 -45.8359375 273.703125 C-59.13919485 271.32900523 -71.15069102 265.69789072 -79.71875 254.86328125 C-86 245.72865854 -86 245.72865854 -86 241 C-72.6444531 241.2263652 -62.69299682 249.59629602 -53 258 C-51.33897495 259.34035493 -49.6739324 260.67579991 -48 262 C-48.84458714 248.91338848 -48.84458714 248.91338848 -54.140625 237.484375 C-56.7038359 236.08186338 -59.27716737 235.05387335 -62 234 C-76.14054941 224.56577085 -85.01438554 211.2916043 -88.875 194.8125 C-89.95834362 189.15503887 -90.35749192 183.74635153 -90 178 C-69.03143129 188.00988235 -60.0310911 206.33879429 -52 227 C-51.96036133 226.3922876 -51.92072266 225.7845752 -51.87988281 225.15844727 C-51.12579316 214.10020157 -50.31576379 203.29135146 -47.32128906 192.58227539 C-45.00335533 184.09815593 -45.52225915 178.65469269 -49.625 171.125 C-49.98819336 170.42665039 -50.35138672 169.72830078 -50.72558594 169.00878906 C-52.75284537 165.15574805 -54.9258421 161.43289637 -57.25 157.75 C-63.25235751 148.08407823 -65.17633384 137.67366651 -65.125 126.5 C-65.13080078 125.23736328 -65.13080078 125.23736328 -65.13671875 123.94921875 C-65.1302433 119.83731013 -65.03531987 116.00981028 -64 112 C-61 113 -61 113 -59.859375 114.8984375 C-59.49328125 115.71570313 -59.1271875 116.53296875 -58.75 117.375 C-56.47296616 122.22577209 -53.74606802 126.50497653 -50.6484375 130.87109375 C-45.79169979 140.08968832 -45.23848858 150.41277574 -44.375 160.625 C-44.13858266 163.32609969 -43.89464426 166.02631665 -43.6484375 168.7265625 C-43.54708496 169.90814941 -43.44573242 171.08973633 -43.34130859 172.30712891 C-43.29025978 174.91393475 -43.29025978 174.91393475 -42 176 C-41.67314209 175.3608667 -41.34628418 174.7217334 -41.00952148 174.06323242 C-39.49101901 171.10179213 -37.96488115 168.14437065 -36.4375 165.1875 C-35.8919043 164.12539307 -35.34630859 163.06328613 -34.78417969 161.96899414 C-32.04225243 156.68952454 -29.27051898 151.72830933 -25.75 146.9375 C-22.31151201 141.58401251 -21.48924492 136.58110526 -22.46533203 130.26855469 C-24.33241203 122.34667918 -27.8198606 114.78188447 -31.06030273 107.34326172 C-35.1289641 97.19750652 -33.65049864 85.04359987 -30 75 C-29.67 74.34 -29.34 73.68 -29 73 C-28.34 73 -27.68 73 -27 73 C-25.78127602 75.90695639 -24.57002846 78.8159559 -23.37890625 81.734375 C-22.57163507 83.6462127 -21.72230788 85.54296351 -20.77734375 87.390625 C-15.33518292 98.54803 -17.80084941 112.78721563 -18.87890625 124.765625 C-19.00024942 128.0066618 -18.64835138 130.83028215 -18 134 C-4.79418213 111.84830551 1.77479181 90.37165326 -4.58984375 64.61279297 C-5.03734127 62.8602047 -5.48510351 61.107684 -5.93310547 59.35522461 C-11.12327916 38.87473329 -9.07899917 20.58721381 -1 1 C-0.67 0.67 -0.34 0.34 0 0 Z M-2 18 C-2 23.28 -2 28.56 -2 34 C-1.67 34 -1.34 34 -1 34 C-1 28.72 -1 23.44 -1 18 C-1.33 18 -1.66 18 -2 18 Z M0 22 C0 25.96 0 29.92 0 34 C0.33 34 0.66 34 1 34 C1 30.04 1 26.08 1 22 C0.67 22 0.34 22 0 22 Z M-7 34 C-7 36.64 -7 39.28 -7 42 C-6.67 42 -6.34 42 -6 42 C-6 39.36 -6 36.72 -6 34 C-6.33 34 -6.66 34 -7 34 Z M-6 45 C-6 46.65 -6 48.3 -6 50 C-5.67 50 -5.34 50 -5 50 C-5 48.35 -5 46.7 -5 45 C-5.33 45 -5.66 45 -6 45 Z M2 45 C3 49 3 49 3 49 Z M1 51 C2 54 2 54 2 54 Z M-28 85 C-28.2361959 91.40353322 -27.823321 96.84629161 -26 103 C-24.5950596 99.10939581 -25.30486761 95.76907638 -25.9375 91.75 C-26.13214844 90.48671875 -26.32679688 89.2234375 -26.52734375 87.921875 C-26.68332031 86.95765625 -26.83929688 85.9934375 -27 85 C-27.33 85 -27.66 85 -28 85 Z M-26 85 C-25.67 88.3 -25.34 91.6 -25 95 C-24.67 95 -24.34 95 -24 95 C-23.95875 93.72125 -23.9175 92.4425 -23.875 91.125 C-23.85179687 90.40570313 -23.82859375 89.68640625 -23.8046875 88.9453125 C-23.81668311 86.76136355 -23.81668311 86.76136355 -26 85 Z M-30 92 C-29 94 -29 94 -29 94 Z M-22 95 C-22 100.28 -22 105.56 -22 111 C-21.67 111 -21.34 111 -21 111 C-21 105.72 -21 100.44 -21 95 C-21.33 95 -21.66 95 -22 95 Z M-29 98 C-28 100 -28 100 -28 100 Z M-24 99 C-23 102 -23 102 -23 102 Z M-30 102 C-29 104 -29 104 -29 104 Z M-28 102 C-27 104 -27 104 -27 104 Z M-62 124 C-61 126 -61 126 -61 126 Z M-59 126 C-58 128 -58 128 -58 128 Z M-61 127 C-60 130 -60 130 -60 130 Z M-63 129 C-62 131 -62 131 -62 131 Z M-58 129 C-57 132 -57 132 -57 132 Z M-60 131 C-59 134 -59 134 -59 134 Z M-55 131 C-54 133 -54 133 -54 133 Z M-57 132 C-56 136 -56 136 -56 136 Z M-62 133 C-61 135 -61 135 -61 135 Z M-59 135 C-58 138 -58 138 -58 138 Z M-54 135 C-53 137 -53 137 -53 137 Z M-56 136 C-55.87625 137.258125 -55.7525 138.51625 -55.625 139.8125 C-55.55539063 140.52019531 -55.48578125 141.22789062 -55.4140625 141.95703125 C-55.07334609 144.29988142 -55.07334609 144.29988142 -53 147 C-53.12375 145.741875 -53.2475 144.48375 -53.375 143.1875 C-53.44460937 142.47980469 -53.51421875 141.77210938 -53.5859375 141.04296875 C-53.92665391 138.70011858 -53.92665391 138.70011858 -56 136 Z M-58 139 C-57 141 -57 141 -57 141 Z M-51 139 C-50 142 -50 142 -50 142 Z M-50 142 C-49 146 -49 146 -49 146 Z M-53 147 C-52 151 -52 151 -52 151 Z M-49 147 C-48 151 -48 151 -48 151 Z M-52 151 C-51 154 -51 154 -51 154 Z M-51 155 C-50 157 -50 157 -50 157 Z M-21 179 C-21.33 179.66 -21.66 180.32 -22 181 C-21.01 180.67 -20.02 180.34 -19 180 C-19.66 179.67 -20.32 179.34 -21 179 Z M-86 187 C-85 189 -85 189 -85 189 Z M-85 189 C-84 191 -84 191 -84 191 Z M-81 191 C-80 193 -80 193 -80 193 Z M-78 191 C-77 193 -77 193 -77 193 Z M-86 192 C-85.47515308 196.55700425 -83.68492697 199.192874 -80.9375 202.8125 C-80.20402344 203.78832031 -79.47054687 204.76414062 -78.71484375 205.76953125 C-78.14894531 206.50558594 -77.58304688 207.24164063 -77 208 C-77 204.00186567 -78.86594251 201.58095737 -80.9375 198.3125 C-81.31068359 197.70599609 -81.68386719 197.09949219 -82.06835938 196.47460938 C-83.01266267 194.96202265 -84.00262897 193.47813339 -85 192 C-85.33 192 -85.66 192 -86 192 Z M-80 193 C-79.67 193.99 -79.34 194.98 -79 196 C-79 195.01 -79 194.02 -79 193 C-79.33 193 -79.66 193 -80 193 Z M-76 194 C-75 196 -75 196 -75 196 Z M-78 196 C-77 198 -77 198 -77 198 Z M-75 196 C-74 198 -74 198 -74 198 Z M-72 197 C-71 199 -71 199 -71 199 Z M-77 198 C-76 200 -76 200 -76 200 Z M-74 198 C-73 200 -73 200 -73 200 Z M-71 199 C-70 201 -70 201 -70 201 Z M-75 201 C-74 203 -74 203 -74 203 Z M-69 202 C-68 204 -68 204 -68 204 Z M-74 203 C-73 205 -73 205 -73 205 Z M-68 204 C-67 206 -67 206 -67 206 Z M-73 205 C-72 207 -72 207 -72 207 Z M-67 206 C-66 208 -66 208 -66 208 Z M-80 207 C-79 209 -79 209 -79 209 Z M-75 209 C-74 211 -74 211 -74 211 Z M-77 211 C-76.67 211.99 -76.34 212.98 -76 214 C-76 213.01 -76 212.02 -76 211 C-76.33 211 -76.66 211 -77 211 Z M-25 215 C-26.15330947 216.57789598 -27.29737927 218.1625482 -28.4375 219.75 C-29.07558594 220.63171875 -29.71367187 221.5134375 -30.37109375 222.421875 C-31.8275081 224.72699125 -32.55931821 226.34349572 -33 229 C-29.21300384 225.63378119 -26.1727369 221.58358196 -24 217 C-24.33 216.34 -24.66 215.68 -25 215 Z M-24 223 C-25.03048037 224.6188996 -26.04914678 226.24532489 -27.0625 227.875 C-27.63097656 228.77992188 -28.19945312 229.68484375 -28.78515625 230.6171875 C-29.18605469 231.40351563 -29.58695313 232.18984375 -30 233 C-29.67 233.66 -29.34 234.32 -29 235 C-27.96951963 233.3811004 -26.95085322 231.75467511 -25.9375 230.125 C-25.36902344 229.22007812 -24.80054688 228.31515625 -24.21484375 227.3828125 C-23.81394531 226.59648437 -23.41304688 225.81015625 -23 225 C-23.33 224.34 -23.66 223.68 -24 223 Z M-29 226 C-28 228 -28 228 -28 228 Z M-34 229 C-33 231 -33 231 -33 231 Z M-31 229 C-30 231 -30 231 -30 231 Z M-35 231 C-34 233 -34 233 -34 233 Z M-32 231 C-31 233 -31 233 -31 233 Z M-33 233 C-33 236 -33 236 -33 236 Z M-40 235 C-39 238 -39 238 -39 238 Z M-31 235 C-31 238 -31 238 -31 238 Z M-35 236 C-34 238 -34 238 -34 238 Z M-41 238 C-40 240 -40 240 -40 240 Z M-36 238 C-35 240 -35 240 -35 240 Z M-33 238 C-32 240 -32 240 -32 240 Z M-42 240 C-41 243 -41 243 -41 243 Z M-37 240 C-36 242 -36 242 -36 242 Z M-43 243 C-42 245 -42 245 -42 245 Z M-44 246 C-43 248 -43 248 -43 248 Z " fill="#FFFFFF" transform="translate(281,256)"/>
<path d="M0 0 C3 1 3 1 3.85961914 2.65136719 C4.08254639 3.35938477 4.30547363 4.06740234 4.53515625 4.796875 C4.7863623 5.58457275 5.03756836 6.37227051 5.29638672 7.18383789 C5.5492041 8.03067139 5.80202148 8.87750488 6.0625 9.75 C6.45719482 11.04248657 6.45719482 11.04248657 6.85986328 12.36108398 C8.88114435 19.17639653 10.38254042 25.90411528 11 33 C11.10634766 34.21429688 11.10634766 34.21429688 11.21484375 35.453125 C11.59971395 44.7515891 9.27371027 54.25978216 6.91015625 63.2109375 C0.99138072 85.76859985 3.81701415 107.46281167 15.56787109 127.70019531 C17.03060569 130.14281173 18.50632347 132.57620539 20 135 C19.94501343 133.26266602 19.94501343 133.26266602 19.88891602 131.49023438 C19.76038795 127.11449391 19.68120632 122.73891252 19.61547852 118.36181641 C19.58068449 116.48229753 19.5332299 114.60296206 19.47192383 112.72412109 C19.04659587 99.33522597 20.73458423 89.83536949 27 78 C27.69122743 76.34336882 28.36901725 74.68050082 29 73 C29.66 73 30.32 73 31 73 C37.28223735 90.77991702 34.84234948 103.76605552 27.36328125 120.765625 C24.37862259 127.8467063 22.42091313 134.90394437 25.2890625 142.34375 C26.80488082 145.74235537 28.66268046 148.81196721 30.6875 151.9375 C35.34908958 159.36151304 39.18599795 167.11519276 43 175 C43.33 175.66 43.66 176.32 44 177 C45.84714872 168.78608336 46.55903465 160.52842089 47.12646484 152.14599609 C47.76024146 143.99681801 49.21730126 136.07683571 53.75 129.125 C54.26304687 128.31546875 54.77609375 127.5059375 55.3046875 126.671875 C55.86414063 125.79015625 56.42359375 124.9084375 57 124 C58.30009853 121.79662016 59.5917421 119.58823023 60.875 117.375 C61.47054687 116.35148437 62.06609375 115.32796875 62.6796875 114.2734375 C63.11539063 113.52320313 63.55109375 112.77296875 64 112 C64.66 112.33 65.32 112.66 66 113 C70.41026201 135.53191551 62.42267696 153.52136709 50.4453125 171.9609375 C46.61698752 180.01076678 46.77877132 186.48635906 49.25 194.875 C52.02204527 205.20631824 53.23364462 215.35109162 54 226 C54.49628906 224.83984375 54.99257813 223.6796875 55.50390625 222.484375 C63.52146516 203.94712641 71.71127017 188.21429841 90 178 C90.66 178 91.32 178 92 178 C92.49496337 194.82875445 87.0711594 210.78222417 76.19921875 223.68359375 C70.16510666 230.03923934 63.02295442 235.40350319 55 239 C54.34 239 53.68 239 53 239 C52.86722656 240.22976563 52.73445312 241.45953125 52.59765625 242.7265625 C52.41935957 244.35938469 52.2409692 245.99219666 52.0625 247.625 C51.97548828 248.43324219 51.88847656 249.24148438 51.79882812 250.07421875 C51.32290463 254.41041058 50.77162811 258.70390836 50 263 C50.55945313 262.38253906 51.11890625 261.76507813 51.6953125 261.12890625 C56.51594514 256.03701615 61.29040139 251.8295191 67.1875 248.0625 C67.75678223 247.69777588 68.32606445 247.33305176 68.91259766 246.95727539 C74.73817952 243.35388332 79.99209645 240.48722657 87 241 C87 248.52221613 82.88136666 253.55449465 78 259 C71.23723143 265.02835026 62.46816007 271.01509715 53.33203125 272.40625 C50.35742872 272.87426613 48.52769626 273.33076662 46 275 C43.38763457 279.43838248 41.6457067 284.05880965 39.84863281 288.87109375 C38.52854691 292.18270166 36.88769721 295.24048004 35.1875 298.375 C34.62417969 299.41398437 34.06085938 300.45296875 33.48046875 301.5234375 C32 304 32 304 30 306 C29.01 306 28.02 306 27 306 C27.66937401 302.02256025 29.62893817 299.05201532 31.6875 295.625 C42.0880537 277.91755849 42.0880537 277.91755849 45.91015625 258.25390625 C45.20280467 255.78386516 45.20280467 255.78386516 42.703125 254.859375 C41.81109375 254.57578125 40.9190625 254.2921875 40 254 C28.15923356 247.17211278 21.20385031 233.59278373 17 221 C15.94186288 216.51648309 15.70349731 212.5957917 16 208 C17.515625 206.2578125 17.515625 206.2578125 19 205 C33.07317851 215.04751752 43.36809064 228.20932857 48 245 C49.77132856 239.68601433 49.18466709 233.9984977 49.1875 228.4375 C49.19974609 227.19935547 49.21199219 225.96121094 49.22460938 224.68554688 C49.69576528 212.11330014 49.69576528 212.11330014 44.5703125 201.2265625 C40.00697283 198.06732734 34.84814843 195.80402669 29.875 193.375 C15.04873314 185.84510144 6.02815168 177.58608762 -2 163 C-2.56589844 162.08992187 -3.13179687 161.17984375 -3.71484375 160.2421875 C-5 158 -5 158 -5 156 C-1.58727722 156.60941478 0.30535861 157.86013772 3 160 C8.79641671 164.21321633 15.1056821 166.89543131 21.69140625 169.62695312 C28.97524432 172.72343655 35.49078023 176.61347528 40.5 182.875 C40.9846875 183.47054687 41.469375 184.06609375 41.96875 184.6796875 C42.3090625 185.11539063 42.649375 185.55109375 43 186 C36.23865686 169.84669467 28.42920814 154.92598847 18.74560547 140.32373047 C15.42384103 135.28573739 12.31197499 130.21507179 9.5 124.875 C9.0201062 123.96609009 9.0201062 123.96609009 8.53051758 123.03881836 C7.17095743 120.41673162 5.90962961 117.7865781 4.7578125 115.06640625 C1.69109069 107.94949667 -2.14150775 105.37806335 -9 102 C-25.14511422 93.80023896 -36.97908029 83.05080502 -44 66 C-43.6875 63.625 -43.6875 63.625 -43 62 C-41.56720703 62.96099609 -41.56720703 62.96099609 -40.10546875 63.94140625 C-38.79956418 64.81523124 -37.49356802 65.68891934 -36.1875 66.5625 C-35.50405518 67.02068115 -34.82061035 67.4788623 -34.11645508 67.95092773 C-30.18805446 70.57492089 -26.22262115 73.10432275 -22.1875 75.5625 C-12.6834165 81.60670169 -6.25064033 88.73254203 0 98 C0.07494594 93.21691191 0.1289721 88.43417616 0.16479492 83.65063477 C0.17975066 82.02817825 0.20012277 80.40576123 0.22631836 78.78344727 C0.37551415 69.29635047 0.02851108 61.09265436 -3 52 C-5.4601 40.02846686 -3.77699541 28.36398704 -1.734375 16.5 C-0.80361264 11.02656164 -0.32071995 5.54071358 0 0 Z M2 11 C3 13 3 13 3 13 Z M3 21 C3 27.27 3 33.54 3 40 C3.33 40 3.66 40 4 40 C4 33.73 4 27.46 4 21 C3.67 21 3.34 21 3 21 Z M1 30 C1 32.31 1 34.62 1 37 C1.33 37 1.66 37 2 37 C2 34.69 2 32.38 2 30 C1.67 30 1.34 30 1 30 Z M6 33 C7 35 7 35 7 35 Z M-2 38 C-2 39.65 -2 41.3 -2 43 C-1.67 43 -1.34 43 -1 43 C-1 41.35 -1 39.7 -1 38 C-1.33 38 -1.66 38 -2 38 Z M7 42 C7 44.31 7 46.62 7 49 C7.33 49 7.66 49 8 49 C8 46.69 8 44.38 8 42 C7.67 42 7.34 42 7 42 Z M-1 46 C-1 47.65 -1 49.3 -1 51 C-0.67 51 -0.34 51 0 51 C0 49.35 0 47.7 0 46 C-0.33 46 -0.66 46 -1 46 Z M0 53 C1 55 1 55 1 55 Z M27 84 C28 86 28 86 28 86 Z M29 84 C28.66191314 86.06172613 28.32972639 88.1244203 28 90.1875 C27.814375 91.33605469 27.62875 92.48460937 27.4375 93.66796875 C27.06510523 96.50415393 26.91403979 99.14719564 27 102 C30.24961394 96.15069491 30.12793379 90.5246233 30 84 C29.67 84 29.34 84 29 84 Z M26 86 C24.79431947 90.67201205 24.90617574 95.21496292 25 100 C25.33 100 25.66 100 26 100 C26.33 95.38 26.66 90.76 27 86 C26.67 86 26.34 86 26 86 Z M31 90 C32 93 32 93 32 93 Z M23 94 C23 100.6 23 107.2 23 114 C23.33 114 23.66 114 24 114 C24 107.4 24 100.8 24 94 C23.67 94 23.34 94 23 94 Z M30 97 C31 99 31 99 31 99 Z M29 101 C30 103 30 103 30 103 Z M26 104 C27 106 27 106 27 106 Z M63 123 C64 125 64 125 64 125 Z M62 126 C63 129 63 129 63 129 Z M64 128 C65 130 65 130 65 130 Z M59 129 C60 131 60 131 60 131 Z M61 130 C62 133 62 133 62 133 Z M56 131 C57 133 57 133 57 133 Z M63 131 C64 134 64 134 64 134 Z M58 132 C59 135 59 135 59 135 Z M55 134 C56 136 56 136 56 136 Z M60 134 C61 137 61 137 61 137 Z M57 135 C55.05320078 140.47621693 55.05320078 140.47621693 56 146 C57.94679922 140.52378307 57.94679922 140.52378307 57 135 Z M62 136 C63 138 63 138 63 138 Z M52 138 C53 140 53 140 53 140 Z M54 138 C55 140 55 140 55 140 Z M59 138 C60 140 60 140 60 140 Z M51 141 C52 145 52 145 52 145 Z M50 146 C51 149 51 149 51 149 Z M54 146 C55 150 55 150 55 150 Z M53 150 C54 153 54 153 54 153 Z M52 154 C53 157 53 157 53 157 Z M15 175 C15.33 175.66 15.66 176.32 16 177 C16.66 176.67 17.32 176.34 18 176 C17.01 175.67 16.02 175.34 15 175 Z M18 177 C18.33 177.66 18.66 178.32 19 179 C19.66 178.67 20.32 178.34 21 178 C20.01 177.67 19.02 177.34 18 177 Z M22 180 C22.33 180.66 22.66 181.32 23 182 C23.66 181.67 24.32 181.34 25 181 C24.01 180.67 23.02 180.34 22 180 Z M80 189 C81 191 81 191 81 191 Z M83 189 C84 191 84 191 84 191 Z M78 192 C79 194 79 194 79 194 Z M81 192 C82 194 82 194 82 194 Z M87 192 C85.27276859 194.48012715 83.59284752 196.97257806 81.9375 199.5 C81.46505859 200.21542969 80.99261719 200.93085938 80.50585938 201.66796875 C79.33415403 203.44327988 78.16668594 205.22138623 77 207 C77.33 207.66 77.66 208.32 78 209 C79.30141481 207.29908111 80.59072165 205.58889459 81.875 203.875 C82.95394531 202.44800781 82.95394531 202.44800781 84.0546875 200.9921875 C85.98211019 198.02751726 87.04470778 195.38877345 88 192 C87.67 192 87.34 192 87 192 Z M77 194 C78 196 78 196 78 196 Z M80 194 C81 196 81 196 81 196 Z M79 196 C79 199 79 199 79 199 Z M77 199 C78 201 78 201 78 201 Z M71 200 C72 202 72 202 72 202 Z M76 201 C77 203 77 203 77 203 Z M70 202 C71 204 71 204 71 204 Z M69 204 C69 207 69 207 69 207 Z M83 204 C84 206 84 206 84 206 Z M73 206 C74 208 74 208 74 208 Z M67 207 C68 209 68 209 68 209 Z M80 208 C80 211 80 211 80 211 Z M66 209 C67 211 67 211 67 211 Z M77 212 C77 215 77 215 77 215 Z M25 214 C25.33 214.99 25.66 215.98 26 217 C26 216.01 26 215.02 26 214 C25.67 214 25.34 214 25 214 Z M27 217 C28.3255581 220.62276315 29.94346955 223.63505348 32.125 226.8125 C32.66382813 227.60269531 33.20265625 228.39289063 33.7578125 229.20703125 C34.16773438 229.79871094 34.57765625 230.39039063 35 231 C35.33 230.34 35.66 229.68 36 229 C34.62137583 226.31346887 34.62137583 226.31346887 32.6875 223.4375 C32.05199219 222.44621094 31.41648437 221.45492187 30.76171875 220.43359375 C29.22932443 217.92205059 29.22932443 217.92205059 27 217 Z M24 221 C25 223 25 223 25 223 Z M25 223 C26 225 26 225 26 225 Z M26 225 C26.60183749 227.02045442 27.27306096 229.02111039 28 231 C28.66 231.33 29.32 231.66 30 232 C29.39816251 229.97954558 28.72693904 227.97888961 28 226 C27.34 225.67 26.68 225.34 26 225 Z M31 228 C32 230 32 230 32 230 Z M32 230 C33 232 33 232 33 232 Z M36 231 C37 233 37 233 37 233 Z M30 232 C30.66 233.65 31.32 235.3 32 237 C32.33 236.34 32.66 235.68 33 235 C32.01 234.01 31.02 233.02 30 232 Z M39 232 C40 234 40 234 40 234 Z M34 233 C35 235 35 235 35 235 Z M37 233 C38 235 38 235 38 235 Z M40 234 C41 236 41 236 41 236 Z M35 235 C36 237 36 237 36 237 Z M41 236 C42 238 42 238 42 238 Z M33 237 C34 239 34 239 34 239 Z M36 237 C36.33 237.99 36.66 238.98 37 240 C37 239.01 37 238.02 37 237 C36.67 237 36.34 237 36 237 Z M42 238 C43 241 43 241 43 241 Z M38 240 C39 242 39 242 39 242 Z M43 241 C44 243 44 243 44 243 Z M39 242 C40 244 40 244 40 244 Z M44 244 C45 246 45 246 45 246 Z " fill="#FEFEFE" transform="translate(718,242)"/>
<path d="M0 0 C1.11701191 0.81164175 2.20576764 1.6629498 3.27075195 2.54174805 C5.33365304 4.15849708 7.46371593 5.31592733 9.7824707 6.53393555 C15.94405327 9.90714092 18.98429387 13.75008187 22.0949707 19.97143555 C22.0949707 21.29143555 22.0949707 22.61143555 22.0949707 23.97143555 C22.7549707 23.97143555 23.4149707 23.97143555 24.0949707 23.97143555 C24.5074707 24.71393555 24.9199707 25.45643555 25.3449707 26.22143555 C27.44086121 29.51497778 29.84836786 30.87918038 33.0949707 32.97143555 C33.0949707 33.63143555 33.0949707 34.29143555 33.0949707 34.97143555 C34.4149707 35.63143555 35.7349707 36.29143555 37.0949707 36.97143555 C37.42700195 39.11987305 37.42700195 39.11987305 37.0949707 41.97143555 C35.37112502 44.06112285 33.7575406 45.78325663 31.7824707 47.59643555 C31.28295898 48.07338867 30.78344727 48.5503418 30.26879883 49.04174805 C28.885927 50.36051324 27.49085692 51.66645364 26.0949707 52.97143555 C23.83563126 55.16100916 21.77134163 57.46090466 19.7199707 59.84643555 C16.94899645 63.02163226 14.20677167 66.12636038 11.0949707 68.97143555 C10.4349707 68.97143555 9.7749707 68.97143555 9.0949707 68.97143555 C9.04727539 69.51155273 8.99958008 70.05166992 8.95043945 70.6081543 C7.67619344 74.12833163 5.06845835 76.26573453 2.4074707 78.78393555 C1.30145735 79.85755724 0.19726899 80.9330624 -0.9050293 82.01049805 C-1.4309668 82.52386719 -1.9569043 83.03723633 -2.4987793 83.56616211 C-4.61533262 85.68124561 -6.50824428 87.94981812 -8.40893555 90.2565918 C-11.05741647 93.29231797 -13.9829399 96.05854093 -16.85424805 98.8815918 C-19.058041 101.0552274 -19.058041 101.0552274 -21.3425293 104.03393555 C-21.8581543 104.67331055 -22.3737793 105.31268555 -22.9050293 105.97143555 C-23.5650293 105.97143555 -24.2250293 105.97143555 -24.9050293 105.97143555 C-25.2350293 106.63143555 -25.5650293 107.29143555 -25.9050293 107.97143555 C-25.9050293 107.31143555 -25.9050293 106.65143555 -25.9050293 105.97143555 C-26.79931641 105.56610596 -26.79931641 105.56610596 -27.71166992 105.15258789 C-29.88766325 103.98078739 -31.27903344 102.82889639 -32.9987793 101.07299805 C-33.55436523 100.5109668 -34.10995117 99.94893555 -34.68237305 99.36987305 C-35.25084961 98.78463867 -35.81932617 98.1994043 -36.4050293 97.59643555 C-36.97350586 97.01893555 -37.54198242 96.44143555 -38.12768555 95.84643555 C-39.22733455 94.72892682 -40.32507868 93.60953957 -41.4206543 92.48803711 C-43.23451804 90.63479343 -45.06688306 88.80057126 -46.9050293 86.97143555 C-46.70006836 86.37975586 -46.49510742 85.78807617 -46.28393555 85.1784668 C-46.01452148 84.38827148 -45.74510742 83.59807617 -45.4675293 82.78393555 C-45.20069336 82.00663086 -44.93385742 81.22932617 -44.65893555 80.4284668 C-44.28575195 79.21223633 -44.28575195 79.21223633 -43.9050293 77.97143555 C-43.65881836 77.2340918 -43.41260742 76.49674805 -43.15893555 75.73706055 C-42.77214804 71.52405198 -44.06312852 67.91888251 -45.2800293 63.90893555 C-45.7463582 62.31393698 -46.21251013 60.71888665 -46.6784668 59.1237793 C-46.88906738 58.42244873 -47.09966797 57.72111816 -47.31665039 56.99853516 C-47.89701803 54.99903619 -48.41137291 52.99393834 -48.9050293 50.97143555 C-49.08235596 50.35196045 -49.25968262 49.73248535 -49.44238281 49.09423828 C-51.69056066 38.77872039 -49.22945575 30.52297418 -44.4675293 21.40893555 C-43.9705957 20.35641602 -43.47366211 19.30389648 -42.96166992 18.21948242 C-39.9593508 12.29415072 -37.61423059 8.88258565 -31.24072266 6.69628906 C-30.08455444 6.33748657 -30.08455444 6.33748657 -28.9050293 5.97143555 C-27.39946641 5.34399567 -25.89934541 4.70333402 -24.4050293 4.04956055 C-22.90593848 3.43795232 -21.40593625 2.82857326 -19.9050293 2.22143555 C-19.1625293 1.90561523 -18.4200293 1.58979492 -17.6550293 1.2644043 C-12.17802352 -0.93210323 -5.53635324 -2.98919085 0 0 Z " fill="#FFFFFF" transform="translate(394.905029296875,182.028564453125)"/>
<path d="M0 0 C4.45295929 1.39983067 8.71471533 3.15557338 13 5 C14.07121094 5.45375 15.14242187 5.9075 16.24609375 6.375 C23.84832571 9.69665141 23.84832571 9.69665141 25 12 C25.66 12 26.32 12 27 12 C32.859375 23.71875 32.859375 23.71875 33.92163086 25.86279297 C34.64131415 27.28912475 35.38191672 28.70508958 36.14282227 30.10986328 C40.22843822 37.77118993 40.08941466 45.0093183 37.625 53.3125 C37.09297758 54.87831007 36.55194211 56.44110009 36 58 C34.54488348 62.42169521 34.54488348 62.42169521 34 67 C33.34 67 32.68 67 32 67 C32.309375 67.804375 32.309375 67.804375 32.625 68.625 C33 71 33 71 31.75 73.625 C30.83950878 77.72221048 31.56125749 78.50884246 33.5625 82.0625 C35 84.66015625 35 84.66015625 36 87 C35.0625 90 35.0625 90 33 92 C32.04867187 92.44279297 32.04867187 92.44279297 31.078125 92.89453125 C28.66363261 94.17893227 27.42070653 95.58200567 25.6875 97.6875 C22.31967324 101.67494857 18.73978684 105.36251736 15 109 C11.22609977 105.89816419 7.84106363 103.00331693 5 99 C2.54975845 96.50780226 0.05952482 94.05866353 -2.4296875 91.60546875 C-8.10495519 85.99366252 -13.43452538 80.21533946 -18.5859375 74.125 C-19.09382812 73.526875 -19.60171875 72.92875 -20.125 72.3125 C-20.56070313 71.79300781 -20.99640625 71.27351563 -21.4453125 70.73828125 C-24.36287734 67.47617985 -27.53431124 64.45950705 -30.6484375 61.38671875 C-35.4635572 56.61988822 -40.17846154 51.82941538 -44.5625 46.65625 C-45.96869198 44.95837691 -45.96869198 44.95837691 -47.6875 43.53125 C-49 42 -49 42 -49 38 C-46.65625 36.16796875 -46.65625 36.16796875 -43.5 34.1875 C-36.91104187 29.7348968 -34.00818593 24.44715997 -30.71875 17.35546875 C-27.89309967 11.83902868 -24.39089599 9.44102208 -19.0625 6.4375 C-18.04285156 5.85871094 -17.02320313 5.27992188 -15.97265625 4.68359375 C-14.99167969 4.12800781 -14.01070312 3.57242188 -13 3 C-12.12214844 2.44441406 -11.24429688 1.88882813 -10.33984375 1.31640625 C-6.83638763 -0.65465337 -3.85537362 -0.66429143 0 0 Z " fill="#FFFFFF" transform="translate(616,181)"/>
<path d="M0 0 C1.34711336 0.98135792 2.68101799 1.98114563 4 3 C6.57258666 3.77832644 6.57258666 3.77832644 9.25 4.1875 C10.14203125 4.34605469 11.0340625 4.50460937 11.953125 4.66796875 C12.62859375 4.77753906 13.3040625 4.88710938 14 5 C14.6875 6.5625 14.6875 6.5625 15 9 C14.33152186 10.62888662 13.65050041 12.25385542 12.90429688 13.84863281 C11.01211627 18.35022448 9.97520598 23.15797451 8.75 27.875 C8.13502667 30.1955544 7.51911574 32.51586051 6.90234375 34.8359375 C6.58894043 36.01897461 6.27553711 37.20201172 5.95263672 38.42089844 C4.43516613 44.12210778 2.88376258 49.81340325 1.3125 55.5 C1.03954102 56.50659668 0.76658203 57.51319336 0.48535156 58.55029297 C-0.82032477 63.25718528 -2.25737777 67.77995182 -4.1328125 72.29296875 C-5.72147859 76.12909984 -6.6715148 79.66929208 -7.1875 83.8125 C-7.85917837 88.96621905 -8.70107281 93.96665713 -10 99 C-11.00624071 102.98024103 -11.84469257 106.93503475 -12.4375 111 C-12.98824051 113.93728272 -13.8891581 116.23257157 -15 119 C-16.06739105 122.23980552 -17.12091819 125.48247935 -18.14453125 128.73632812 C-19.78087031 133.78087031 -19.78087031 133.78087031 -22 136 C-22 132 -22 132 -21 129 C-21.66 129 -22.32 129 -23 129 C-23.2165625 130.546875 -23.2165625 130.546875 -23.4375 132.125 C-23.623125 133.40375 -23.80875 134.6825 -24 136 C-24.0825 137.093125 -24.165 138.18625 -24.25 139.3125 C-25 142 -25 142 -27.25 143.3125 C-28.1575 143.539375 -29.065 143.76625 -30 144 C-31.2375 144.433125 -31.2375 144.433125 -32.5 144.875 C-35 145 -35 145 -37.875 143.625 C-40.25682598 140.68274437 -40.28526713 140.25668901 -39.9375 136.6875 C-39.25044694 132.69730723 -38.23021696 128.85467981 -37 125 C-37.99 125 -38.98 125 -40 125 C-40 128.3 -40 131.6 -40 135 C-40.99 135 -41.98 135 -43 135 C-43.66 132.36 -44.32 129.72 -45 127 C-43.515 126.01 -43.515 126.01 -42 125 C-42.66 125 -43.32 125 -44 125 C-44 121 -44 121 -43 120 C-43.0095572 118.06512494 -43.02085019 116.13023416 -43.04324341 114.19546509 C-42.97935085 110.95164392 -42.36680624 107.90411319 -41.71484375 104.73046875 C-41.57847504 104.06017639 -41.44210632 103.38988403 -41.30160522 102.69927979 C-40.85595591 100.5266964 -40.3975712 98.35707161 -39.9375 96.1875 C-39.78171478 95.44033722 -39.62592957 94.69317444 -39.46542358 93.92337036 C-36.65051804 80.43463033 -33.30662566 67.12859609 -29.73730469 53.81933594 C-28.71731057 49.91904055 -27.81974595 45.9957879 -26.9375 42.0625 C-25.33720795 34.97561762 -23.29140484 28.05070197 -21.10522461 21.12329102 C-19.56250252 16.17055602 -18.39611242 11.27769457 -17.51953125 6.16259766 C-17 4 -17 4 -15.125 0.8125 C-10.25193734 -2.01387634 -5.37422298 -1.30104986 0 0 Z M2 8 C3 10 3 10 3 10 Z " fill="#FFFFFF" transform="translate(545,585)"/>
<path d="M0 0 C3.8125 1.0625 3.8125 1.0625 5.0625 3 C5.31 3.680625 5.5575 4.36125 5.8125 5.0625 C7.81567522 6.20485182 7.81567522 6.20485182 9.8125 7.0625 C10.32296875 6.28712891 10.32296875 6.28712891 10.84375 5.49609375 C12.38395153 3.40289433 13.78634552 1.69704479 15.8125 0.0625 C18.93035559 -0.39940453 20.68666195 0.17684589 23.8125 1.0625 C25.8125 3.0625 25.8125 3.0625 25.8125 6.0625 C27.1325 6.7225 28.4525 7.3825 29.8125 8.0625 C30.410625 7.11375 31.00875 6.165 31.625 5.1875 C33.8125 2.0625 33.8125 2.0625 36.8125 0.0625 C43.26533019 0.51533019 43.26533019 0.51533019 45.8125 3.0625 C45.8125 4.0525 45.8125 5.0425 45.8125 6.0625 C46.8025 6.0625 47.7925 6.0625 48.8125 6.0625 C49.2986117 13.47570344 48.14963309 19.37732815 44.8125 26.0625 C42.00902494 29.24482304 40.32554047 29.91848864 36.25 31.0625 C32.8125 31.0625 32.8125 31.0625 30.5 29.5 C28.61077565 26.77112038 27.68282147 24.25367873 26.8125 21.0625 C26.49796875 21.61679687 26.1834375 22.17109375 25.859375 22.7421875 C25.43140625 23.46664062 25.0034375 24.19109375 24.5625 24.9375 C24.14484375 25.65679688 23.7271875 26.37609375 23.296875 27.1171875 C21.61173941 29.32560204 20.41130938 30.12692862 17.8125 31.0625 C14.25 31 14.25 31 10.8125 30.0625 C8.54101175 27.26099782 7.46621752 24.59257461 6.8125 21.0625 C6.255625 21.97 5.69875 22.8775 5.125 23.8125 C2.83972781 27.02423389 1.21413718 29.08480396 -2.1875 31.0625 C-5.88819271 31.0625 -8.18242689 31.05826688 -10.875 28.390625 C-13.7656425 23.26317581 -12.83623849 16.22069977 -11.68359375 10.609375 C-9.70080396 4.67233586 -6.75944463 -0.48981483 0 0 Z M-1.1875 8.0625 C-3.98795623 11.20841933 -4.54011589 13.129564 -4.375 17.3125 C-4.34792969 18.20453125 -4.32085938 19.0965625 -4.29296875 20.015625 C-4.25816406 20.69109375 -4.22335937 21.3665625 -4.1875 22.0625 C-3.5275 22.0625 -2.8675 22.0625 -2.1875 22.0625 C-0.07922945 18.90009418 0.15067465 17.55592531 0.4375 13.875 C0.51226563 12.97394531 0.58703125 12.07289063 0.6640625 11.14453125 C0.71304688 10.45746094 0.76203125 9.77039063 0.8125 9.0625 C0.1525 8.7325 -0.5075 8.4025 -1.1875 8.0625 Z M18.8125 8.0625 C15.27963966 12.62577794 15.48875483 16.55883208 15.8125 22.0625 C18.94029105 21.39428312 18.94029105 21.39428312 20 18.9375 C20.95781259 15.54831699 20.94996202 12.56778139 20.8125 9.0625 C20.1525 8.7325 19.4925 8.4025 18.8125 8.0625 Z M38.8125 8.0625 C36.14659063 12.61676184 35.49686818 15.80196963 35.8125 21.0625 C36.8025 21.0625 37.7925 21.0625 38.8125 21.0625 C39.34644179 19.6507217 39.86415104 18.23279756 40.375 16.8125 C40.66503906 16.02359375 40.95507812 15.2346875 41.25390625 14.421875 C41.85772837 11.87146548 41.6598932 10.50927771 40.8125 8.0625 C40.1525 8.0625 39.4925 8.0625 38.8125 8.0625 Z " fill="#FFFFFF" transform="translate(545.1875,754.9375)"/>
<path d="M0 0 C2.40785525 1.03966116 4.17611483 2.40284108 6.26171875 3.9765625 C7.99421875 4.4096875 7.99421875 4.4096875 9.76171875 4.8515625 C13.85748727 6.16805953 15.21160134 7.21801391 17.26171875 10.9765625 C17.50816737 16.27520782 14.50000181 20.21038761 11.734375 24.51171875 C10.17550805 26.93241611 10.17550805 26.93241611 9.32421875 29.66796875 C8.26171875 31.9765625 8.26171875 31.9765625 6.4140625 33.15625 C0.88855038 34.89089049 -4.12159836 35.86638625 -9.73828125 33.9765625 C-13.64269373 31.48207675 -15.43315694 28.79022734 -17.05078125 24.4765625 C-17.39109375 22.7440625 -17.39109375 22.7440625 -17.73828125 20.9765625 C-17.98578125 20.0278125 -18.23328125 19.0790625 -18.48828125 18.1015625 C-18.92926921 12.58921298 -18.52753743 8.179926 -14.94921875 3.7734375 C-9.91154196 -0.74801092 -6.53208131 -1.74609581 0 0 Z " fill="#FFFFFF" transform="translate(466.73828125,694.0234375)"/>
<path d="M0 0 C1.98 0 3.96 0 6 0 C8.08143448 5.75880973 5.25048335 11.8989109 3.75 17.5625 C3.43675781 18.80708984 3.12351562 20.05167969 2.80078125 21.33398438 C2.49011719 22.52443359 2.17945313 23.71488281 1.859375 24.94140625 C1.57545898 26.03138916 1.29154297 27.12137207 0.99902344 28.24438477 C0.01714418 30.95271105 -0.7917627 32.21057976 -3 34 C-5.32421875 33.3828125 -5.32421875 33.3828125 -8 32 C-9.58203125 29.1796875 -9.58203125 29.1796875 -10.8125 25.875 C-11.23144531 24.77929688 -11.65039062 23.68359375 -12.08203125 22.5546875 C-12.38496094 21.71164062 -12.68789063 20.86859375 -13 20 C-13.25394531 20.91523437 -13.50789063 21.83046875 -13.76953125 22.7734375 C-14.11371094 23.96195313 -14.45789063 25.15046875 -14.8125 26.375 C-15.14894531 27.55835938 -15.48539062 28.74171875 -15.83203125 29.9609375 C-17 33 -17 33 -20 35 C-20.99 34.34 -21.98 33.68 -23 33 C-22.82086138 25.75302837 -21.41397531 18.93064732 -19.625 11.9375 C-19.41593018 11.0921167 -19.20686035 10.2467334 -18.99145508 9.37573242 C-18.78029053 8.58013916 -18.56912598 7.7845459 -18.3515625 6.96484375 C-18.07046631 5.89157837 -18.07046631 5.89157837 -17.78369141 4.79663086 C-17 3 -17 3 -14 1 C-11 1.3125 -11 1.3125 -8 3 C-6.57283892 5.90189419 -5.73692497 8.85837248 -5 12 C-3.20931427 9.3139714 -2.33944209 7.3373411 -1.375 4.3125 C-1.11460937 3.50425781 -0.85421875 2.69601562 -0.5859375 1.86328125 C-0.39257812 1.24839844 -0.19921875 0.63351562 0 0 Z " fill="#FFFFFF" transform="translate(457,755)"/>
<path d="M0 0 C1.9375 1.125 1.9375 1.125 3 3 C2.87563693 6.48216602 2.61336888 9.01860979 0.75 12 C-1 13 -1 13 -3.6875 12.6875 C-4.450625 12.460625 -5.21375 12.23375 -6 12 C-4.9008948 14.5645788 -4.02726476 15.97674476 -1.875 17.8125 C0 20 0 20 0.5 23.4375 C-0.09765678 27.69580458 -0.6840636 29.25019909 -4 32 C-8.57918651 33.40764367 -12.01358989 33.36990379 -16.5 31.6875 C-19 30 -19 30 -20 28 C-20.23333333 21.46666667 -20.23333333 21.46666667 -19 19 C-17.02 19 -15.04 19 -13 19 C-13.515625 18.34 -14.03125 17.68 -14.5625 17 C-16.12029451 13.74895058 -16.31428696 11.55624734 -15.71484375 8 C-14.45798383 4.48353946 -11.9921604 2.15108048 -9 0 C-5.45026831 -1.1832439 -3.60040463 -0.90010116 0 0 Z M-12 20 C-12 21.65 -12 23.3 -12 25 C-10.35 24.67 -8.7 24.34 -7 24 C-8.31200404 22.64567325 -9.64631404 21.31266518 -11 20 C-11.33 20 -11.66 20 -12 20 Z " fill="#FFFFFF" transform="translate(421,755)"/>
<path d="M0 0 C3 2 3 2 3.875 5.875 C4.16804026 8.91598385 4.13598769 9.76349967 2.5625 12.5 C2.046875 12.995 1.53125 13.49 1 14 C-1.475 13.505 -1.475 13.505 -4 13 C-4.33 11.68 -4.66 10.36 -5 9 C-8.11696661 13.33664919 -8.55966813 16.80408388 -9 22 C-8.2575 21.34 -7.515 20.68 -6.75 20 C-4 18 -4 18 0 18 C0 18.66 0 19.32 0 20 C0.66 20 1.32 20 2 20 C0.84349173 24.91516014 -2.05855614 26.91011365 -5.9296875 29.765625 C-8.02382264 31.01420369 -9.58622106 31.68902234 -12 32 C-16.63076923 29.73846154 -16.63076923 29.73846154 -18 27 C-19.01301142 17.78549229 -16.14518317 9.56644583 -11 2 C-7.16475286 -1.2296818 -4.77279773 -1.34883414 0 0 Z " fill="#FFFFFF" transform="translate(479,756)"/>
<path d="M0 0 C0.70640625 0.05220703 1.4128125 0.10441406 2.140625 0.15820312 C3.88579987 0.28791207 5.63045725 0.42454954 7.375 0.5625 C6.625 5.3125 6.625 5.3125 4.375 7.5625 C1.71962628 8.12770003 -0.91644713 8.30038198 -3.625 8.5625 C-3.955 9.5525 -4.285 10.5425 -4.625 11.5625 C-1.655 12.0575 -1.655 12.0575 1.375 12.5625 C1.375 15.375 1.375 15.375 0.375 18.5625 C-1.65440244 19.63843319 -3.59319406 20.24165094 -5.8125 20.82421875 C-6.7096875 21.18966797 -6.7096875 21.18966797 -7.625 21.5625 C-7.955 22.5525 -8.285 23.5425 -8.625 24.5625 C-6.315 25.2225 -4.005 25.8825 -1.625 26.5625 C-1.955 28.2125 -2.285 29.8625 -2.625 31.5625 C-8.86550633 33.76503165 -8.86550633 33.76503165 -12.4375 32.8125 C-14.625 31.5625 -14.625 31.5625 -16.625 29.5625 C-17.12610538 23.90716785 -15.92263074 19.25608989 -14.25 13.9375 C-14.02828125 13.20015625 -13.8065625 12.4628125 -13.578125 11.703125 C-11.20628555 3.91791079 -11.20628555 3.91791079 -9.625 0.5625 C-6.5270403 -0.98647985 -3.36283448 -0.26989539 0 0 Z " fill="#FFFFFF" transform="translate(497.625,755.4375)"/>
<path d="M0 0 C2 1.875 2 1.875 2.6875 4.5 C1.36529907 10.99080455 -3.08823101 16.52997358 -8 20.875 C-5.36 21.205 -2.72 21.535 0 21.875 C1 24.875 1 24.875 0.53125 27.01171875 C-1 28.875 -1 28.875 -4.40625 29.51953125 C-5.76987875 29.5952884 -7.13476984 29.65049843 -8.5 29.6875 C-9.18964844 29.72552734 -9.87929688 29.76355469 -10.58984375 29.80273438 C-15.67833426 30.03583287 -15.67833426 30.03583287 -18 28.875 C-18.8203125 26.65234375 -18.8203125 26.65234375 -19 23.875 C-17.7421875 21.19140625 -17.7421875 21.19140625 -15.875 18.4375 C-14.91013672 17.00664063 -14.91013672 17.00664063 -13.92578125 15.546875 C-11.74080724 12.51538976 -9.48650379 9.66289818 -7 6.875 C-7.556875 7.225625 -8.11375 7.57625 -8.6875 7.9375 C-11.53886783 9.09345993 -13.08517222 8.68467438 -16 7.875 C-15.51669316 1.35035771 -15.51669316 1.35035771 -13.4375 -0.5625 C-8.59457082 -1.68009904 -4.60934701 -1.72850513 0 0 Z " fill="#FFFFFF" transform="translate(531,757.125)"/>
<path d="M0 0 C2.31 0.33 4.62 0.66 7 1 C5.97410805 7.95156637 4.38599934 14.72117689 2.5625 21.5 C2.35729736 22.28938965 2.15209473 23.0787793 1.94067383 23.89208984 C1.73466553 24.6392627 1.52865723 25.38643555 1.31640625 26.15625 C1.13537354 26.82462891 0.95434082 27.49300781 0.76782227 28.18164062 C-0.12874099 30.30488486 -1.2898574 31.48039679 -3 33 C-5.09765625 31.60546875 -5.09765625 31.60546875 -7 29 C-7.00553484 25.66407101 -6.21182834 22.54478803 -5.4375 19.3125 C-5.25380859 18.45205078 -5.07011719 17.59160156 -4.88085938 16.70507812 C-3.62160855 11.00191824 -1.9541937 5.50134375 0 0 Z " fill="#FFFFFF" transform="translate(429,755)"/>
<path d="M0 0 C1.32 0.33 2.64 0.66 4 1 C4 1.66 4 2.32 4 3 C2.68 2.67 1.36 2.34 0 2 C0 1.34 0 0.68 0 0 Z " fill="#000000" transform="translate(763,601)"/>
<path d="M0 0 C0.66 0 1.32 0 2 0 C2 0.99 2 1.98 2 3 C1.34 3 0.68 3 0 3 C0 2.01 0 1.02 0 0 Z " fill="#000000" transform="translate(357,734)"/>
<path d="M0 0 C0.99 0.33 1.98 0.66 3 1 C2.01 1.33 1.02 1.66 0 2 C0 1.34 0 0.68 0 0 Z " fill="#000000" transform="translate(738,643)"/>
<path d="M0 0 C0.99 0.33 1.98 0.66 3 1 C2.01 1.33 1.02 1.66 0 2 C0 1.34 0 0.68 0 0 Z " fill="#000000" transform="translate(762,598)"/>
<path d="M0 0 C0.66 0 1.32 0 2 0 C2 0.66 2 1.32 2 2 C1.34 2 0.68 2 0 2 C0 1.34 0 0.68 0 0 Z " fill="#000000" transform="translate(751,681)"/>
<path d="M0 0 C0.66 0 1.32 0 2 0 C2 0.66 2 1.32 2 2 C1.34 2 0.68 2 0 2 C0 1.34 0 0.68 0 0 Z " fill="#000000" transform="translate(754,648)"/>
<path d="M0 0 C0.99 0.495 0.99 0.495 2 1 C1.01 1.495 1.01 1.495 0 2 C0 1.34 0 0.68 0 0 Z " fill="#000000" transform="translate(319,733)"/>
<path d="M0 0 C0.66 0.66 1.32 1.32 2 2 C1.34 2 0.68 2 0 2 C0 1.34 0 0.68 0 0 Z " fill="#000000" transform="translate(331,714)"/>
<path d="M0 0 C0.99 0.495 0.99 0.495 2 1 C1.01 1.495 1.01 1.495 0 2 C0 1.34 0 0.68 0 0 Z " fill="#000000" transform="translate(739,671)"/>
<path d="" fill="#000000" transform="translate(0,0)"/>
<path d="" fill="#000000" transform="translate(0,0)"/>
<path d="" fill="#000000" transform="translate(0,0)"/>
<path d="" fill="#000000" transform="translate(0,0)"/>
<path d="" fill="#000000" transform="translate(0,0)"/>
<path d="" fill="#000000" transform="translate(0,0)"/>
<path d="" fill="#000000" transform="translate(0,0)"/>
<path d="" fill="#000000" transform="translate(0,0)"/>
<path d="" fill="#000000" transform="translate(0,0)"/>
<path d="" fill="#000000" transform="translate(0,0)"/>
<path d="" fill="#000000" transform="translate(0,0)"/>
<path d="" fill="#000000" transform="translate(0,0)"/>
</svg>
